<svg xmlns="http://www.w3.org/2000/svg" width="284.70562744140625" height="270.82415771484375" viewBox="-36.64644241333008 -40.741302490234375 284.70562744140625 270.82415771484375"><title>Neo4j Graph Visualization</title><desc>Created using Neo4j (http://www.neo4j.com/)</desc><g class="layer relationships"><g class="relationship" transform="translate(138.57802479430012 201.0828794526446) rotate(253.98071836423048)"><path class="outline" fill="#A5ABB6" stroke="none" d="M 25 0.5 L 31.03436778982141 0.5 L 31.03436778982141 -0.5 L 25 -0.5 Z M 76.5968677898214 0.5 L 82.63123557964282 0.5 L 82.63123557964282 3.5 L 89.63123557964282 0 L 82.63123557964282 -3.5 L 82.63123557964282 -0.5 L 76.5968677898214 -0.5 Z"/><text text-anchor="middle" pointer-events="none" font-size="8px" fill="#000000" x="53.81561778982141" y="3" transform="rotate(180 53.81561778982141 0)" font-family="sans-serif">ACTED_IN</text></g><g class="relationship" transform="translate(219.05918022582975 112.64840804571062) rotate(190.97664610482173)"><path class="outline" fill="#A5ABB6" stroke="none" d="M 25 0.5 L 30.820883885258674 0.5 L 30.820883885258674 -0.5 L 25 -0.5 Z M 76.38338388525867 0.5 L 82.20426777051735 0.5 L 82.20426777051735 3.5 L 89.20426777051735 0 L 82.20426777051735 -3.5 L 82.20426777051735 -0.5 L 76.38338388525867 -0.5 Z"/><text text-anchor="middle" pointer-events="none" font-size="8px" fill="#000000" x="53.602133885258674" y="3" transform="rotate(180 53.602133885258674 0)" font-family="sans-serif">ACTED_IN</text></g><g class="relationship" transform="translate(177.10628537452587 -0.5070617170992842) rotate(487.5081493142901)"><path class="outline" fill="#A5ABB6" stroke="none" d="M 25 0.5 L 31.334908138833583 0.5 L 31.334908138833583 -0.5 L 25 -0.5 Z M 76.89740813883358 0.5 L 83.23231627766717 0.5 L 83.23231627766717 3.5 L 90.23231627766717 0 L 83.23231627766717 -3.5 L 83.23231627766717 -0.5 L 76.89740813883358 -0.5 Z"/><text text-anchor="middle" pointer-events="none" font-size="8px" fill="#000000" x="54.11615813883358" y="3" transform="rotate(180 54.11615813883358 0)" font-family="sans-serif">ACTED_IN</text></g><g class="relationship" transform="translate(56.93009385909963 -11.741303310710785) rotate(424.02197545805376)"><path class="outline" fill="#A5ABB6" stroke="none" d="M 25 0.5 L 35.70367724374827 0.5 L 35.70367724374827 -0.5 L 25 -0.5 Z M 71.47711474374827 0.5 L 82.18079198749653 0.5 L 82.18079198749653 3.5 L 89.18079198749653 0 L 82.18079198749653 -3.5 L 82.18079198749653 -0.5 L 71.47711474374827 -0.5 Z"/><text text-anchor="middle" pointer-events="none" font-size="8px" fill="#000000" x="53.59039599374827" y="3" font-family="sans-serif">WROTE</text></g><g class="relationship" transform="translate(-7.646444012846901 88.92183949989541) rotate(360.9904401480225)"><path class="outline" fill="#A5ABB6" stroke="none" d="M 25 0.5 L 35.9172116960292 0.5 L 35.9172116960292 -0.5 L 25 -0.5 Z M 71.6906491960292 0.5 L 82.6078608920584 0.5 L 82.6078608920584 3.5 L 89.6078608920584 0 L 82.6078608920584 -3.5 L 82.6078608920584 -0.5 L 71.6906491960292 -0.5 Z"/><text text-anchor="middle" pointer-events="none" font-size="8px" fill="#000000" x="53.8039304460292" y="3" font-family="sans-serif">WROTE</text></g><g class="relationship" transform="translate(35.971960336887854 183.45312501035943) rotate(307.48287088330477)"><path class="outline" fill="#A5ABB6" stroke="none" d="M 25 0.5 L 31.369813556425314 0.5 L 31.369813556425314 -0.5 L 25 -0.5 Z M 78.26043855642531 0.5 L 84.63025211285063 0.5 L 84.63025211285063 3.5 L 91.63025211285063 0 L 84.63025211285063 -3.5 L 84.63025211285063 -0.5 L 78.26043855642531 -0.5 Z"/><text text-anchor="middle" pointer-events="none" font-size="8px" fill="#000000" x="54.81512605642531" y="3" font-family="sans-serif">DIRECTED</text></g></g><g class="layer nodes"><g class="node" transform="translate(138.57802479430012,201.0828794526446)"><circle class="outline" cx="0" cy="0" r="25" fill="#57C7E3" stroke="#23b3d7" stroke-width="2px"/><text text-anchor="middle" pointer-events="none" font-family="sans-serif" dy="1.5625" font-size="25" fill="#2A2C34"/><text text-anchor="middle" pointer-events="none" x="0" y="5" font-size="10px" fill="#2A2C34" font-family="sans-serif"> Sebastian</text></g><g class="node" transform="translate(106.94429368414127,90.90290292984015)"><circle class="outline" cx="0" cy="0" r="25" fill="#F79767" stroke="#f36924" stroke-width="2px"/><text text-anchor="middle" pointer-events="none" font-family="sans-serif" dy="1.5625" font-size="25" fill="#FFFFFF"/><text text-anchor="middle" pointer-events="none" font-family="sans-serif" dy="1.5625" font-size="25" fill="#FFFFFF"/><text text-anchor="middle" pointer-events="none" font-family="sans-serif" dy="1.5625" font-size="25" fill="#FFFFFF"/><text text-anchor="middle" pointer-events="none" x="0" y="-5" font-size="10px" fill="#FFFFFF" font-family="sans-serif"> Captain</text><text text-anchor="middle" pointer-events="none" x="0" y="5" font-size="10px" fill="#FFFFFF" font-family="sans-serif"> America:</text><text text-anchor="middle" pointer-events="none" x="0" y="15" font-size="10px" fill="#FFFFFF" font-family="sans-serif"> The Fi…</text></g><g class="node" transform="translate(219.05918022582975,112.64840804571062)"><circle class="outline" cx="0" cy="0" r="25" fill="#57C7E3" stroke="#23b3d7" stroke-width="2px"/><text text-anchor="middle" pointer-events="none" font-family="sans-serif" dy="1.5625" font-size="25" fill="#2A2C34"/><text text-anchor="middle" pointer-events="none" font-family="sans-serif" dy="1.5625" font-size="25" fill="#2A2C34"/><text text-anchor="middle" pointer-events="none" x="0" y="0" font-size="10px" fill="#2A2C34" font-family="sans-serif"> Hayley</text><text text-anchor="middle" pointer-events="none" x="0" y="10" font-size="10px" fill="#2A2C34" font-family="sans-serif"> Atwell</text></g><g class="node" transform="translate(177.10628537452587,-0.5070617170992842)"><circle class="outline" cx="0" cy="0" r="25" fill="#57C7E3" stroke="#23b3d7" stroke-width="2px"/><text text-anchor="middle" pointer-events="none" font-family="sans-serif" dy="1.5625" font-size="25" fill="#2A2C34"/><text text-anchor="middle" pointer-events="none" font-family="sans-serif" dy="1.5625" font-size="25" fill="#2A2C34"/><text text-anchor="middle" pointer-events="none" x="0" y="0" font-size="10px" fill="#2A2C34" font-family="sans-serif"> Chris</text><text text-anchor="middle" pointer-events="none" x="0" y="10" font-size="10px" fill="#2A2C34" font-family="sans-serif"> Evans</text></g><g class="node" transform="translate(56.93009385909963,-11.741303310710785)"><circle class="outline" cx="0" cy="0" r="25" fill="#57C7E3" stroke="#23b3d7" stroke-width="2px"/><text text-anchor="middle" pointer-events="none" font-family="sans-serif" dy="1.5625" font-size="25" fill="#2A2C34"/><text text-anchor="middle" pointer-events="none" font-family="sans-serif" dy="1.5625" font-size="25" fill="#2A2C34"/><text text-anchor="middle" pointer-events="none" x="0" y="0" font-size="10px" fill="#2A2C34" font-family="sans-serif"> Stephen</text><text text-anchor="middle" pointer-events="none" x="0" y="10" font-size="10px" fill="#2A2C34" font-family="sans-serif"> McFeely</text></g><g class="node" transform="translate(-7.646444012846901,88.92183949989541)"><circle class="outline" cx="0" cy="0" r="25" fill="#57C7E3" stroke="#23b3d7" stroke-width="2px"/><text text-anchor="middle" pointer-events="none" font-family="sans-serif" dy="1.5625" font-size="25" fill="#2A2C34"/><text text-anchor="middle" pointer-events="none" x="0" y="5" font-size="10px" fill="#2A2C34" font-family="sans-serif"> Christop…</text></g><g class="node" transform="translate(35.971960336887854,183.45312501035943)"><circle class="outline" cx="0" cy="0" r="25" fill="#57C7E3" stroke="#23b3d7" stroke-width="2px"/><text text-anchor="middle" pointer-events="none" font-family="sans-serif" dy="1.5625" font-size="25" fill="#2A2C34"/><text text-anchor="middle" pointer-events="none" font-family="sans-serif" dy="1.5625" font-size="25" fill="#2A2C34"/><text text-anchor="middle" pointer-events="none" x="0" y="0" font-size="10px" fill="#2A2C34" font-family="sans-serif"> Joe</text><text text-anchor="middle" pointer-events="none" x="0" y="10" font-size="10px" fill="#2A2C34" font-family="sans-serif"> Johnston</text></g></g></svg>