<svg xmlns="http://www.w3.org/2000/svg" width="372.6165771484375" height="340.4869689941406" viewBox="-87.85861206054688 -51.015594482421875 372.6165771484375 340.4869689941406"><title>Neo4j Graph Visualization</title><desc>Created using Neo4j (http://www.neo4j.com/)</desc><g class="layer relationships"><g class="relationship" transform="translate(156.47272563697882 260.47137523595467) rotate(183.19442106248658)"><path class="outline" fill="#A5ABB6" stroke="none" d="M 21.40063509461097,12.933012701892217 L 21.90063509461097,12.06698729810778 A 58.0995009012719 58.0995009012719 0 0 0 24.47559583763262,13.46824134004072 L 24.019915680369262,14.358384920749153 A 59.0995009012719 59.0995009012719 0 0 1 21.40063509461097,12.933012701892217 Z M 74.53566144107634,15.940694624809822 L 74.13658402864218,15.023777388149469 A 58.0995009012719 58.0995009012719 0 0 0 76.79419414333218,13.786423681065822 L 75.45973473160669,11.099563417029511 L 83.28594466137115,11.1204950977124 L 78.57347335896617,17.368904033114234 L 77.23901394724068,14.682043769077923 A 59.0995009012719 59.0995009012719 0 0 1 74.53566144107634,15.940694624809822"/><text text-anchor="middle" pointer-events="none" font-size="8px" fill="#000000" x="49.11576736366901" y="23.322118552528188" transform="rotate(180 49.11576736366901 20.322118552528188)" font-family="sans-serif">PRODUCED</text></g><g class="relationship" transform="translate(156.47272563697882 260.47137523595467) rotate(183.19442106248658)"><path class="outline" fill="#A5ABB6" stroke="none" d="M 25 0.5 L 25.892910930836862 0.5 L 25.892910930836862 -0.5 L 25 -0.5 Z M 72.78353593083686 0.5 L 73.67644686167372 0.5 L 73.67644686167372 3.5 L 80.67644686167372 0 L 73.67644686167372 -3.5 L 73.67644686167372 -0.5 L 72.78353593083686 -0.5 Z"/><text text-anchor="middle" pointer-events="none" font-size="8px" fill="#000000" x="49.33822343083686" y="3" transform="rotate(180 49.33822343083686 0)" font-family="sans-serif">DIRECTED</text></g><g class="relationship" transform="translate(156.47272563697882 260.47137523595467) rotate(183.19442106248658)"><path class="outline" fill="#A5ABB6" stroke="none" d="M 21.40063509461097,-12.933012701892217 L 21.90063509461097,-12.06698729810778 A 58.0995009012719 58.0995009012719 0 0 1 31.76405933991405,-16.591446521803043 L 31.433827136406205,-17.535346247285766 A 59.0995009012719 59.0995009012719 0 0 0 21.40063509461097,-12.933012701892217 Z M 66.93745437478483,-18.647429877105907 L 66.66694331148085,-17.684713010820623 A 58.0995009012719 58.0995009012719 0 0 1 76.79419414333218,-13.786423681065822 L 75.45973473160669,-11.099563417029511 L 83.28594466137115,-11.1204950977124 L 78.57347335896617,-17.368904033114234 L 77.23901394724068,-14.682043769077923 A 59.0995009012719 59.0995009012719 0 0 0 66.93745437478483,-18.647429877105907"/><text text-anchor="middle" pointer-events="none" font-size="8px" fill="#000000" x="49.11576736366902" y="-17.322118552528188" transform="rotate(180 49.11576736366902 -20.322118552528188)" font-family="sans-serif">WROTE</text></g><g class="relationship" transform="translate(234.32035323751472 -22.0155971181671) rotate(438.618511053003)"><path class="outline" fill="#A5ABB6" stroke="none" d="M 24.018736134675446,6.953439040707552 L 24.277555179777966,5.987513214418485 A 108.96504815468744 108.96504815468744 0 0 0 27.650941890018306,6.833946562561266 L 27.423081273947556,7.807640323270377 A 109.96504815468744 109.96504815468744 0 0 1 24.018736134675446,6.953439040707552 Z M 74.16280876421422,8.54147338992864 L 73.9656277122768,7.561106299111714 A 108.96504815468744 108.96504815468744 0 0 0 77.36392389018592,6.820991175038228 L 76.67881964569087,3.9002665775838805 L 84.29313199166191,5.709202037458818 L 78.27739621617933,10.715290638310691 L 77.59229197168428,7.794566040856343 A 109.96504815468744 109.96504815468744 0 0 1 74.16280876421422,8.54147338992864"/><text text-anchor="middle" pointer-events="none" font-size="8px" fill="#000000" x="50.76135011692163" y="13.186917956283779" font-family="sans-serif">DIRECTED</text></g><g class="relationship" transform="translate(234.32035323751472 -22.0155971181671) rotate(438.618511053003)"><path class="outline" fill="#A5ABB6" stroke="none" d="M 24.018736134675446,-6.953439040707552 L 24.277555179777966,-5.987513214418485 A 108.96504815468744 108.96504815468744 0 0 1 33.0682775136723,-7.957442121827512 L 32.89013316639962,-8.941446487435101 A 109.96504815468744 109.96504815468744 0 0 0 24.018736134675446,-6.953439040707552 Z M 68.66285781872728,-9.503093070415403 L 68.51569221295009,-8.513981203902716 A 108.96504815468744 108.96504815468744 0 0 1 77.36392389018592,-6.820991175038228 L 76.67881964569087,-3.9002665775838805 L 84.29313199166191,-5.709202037458818 L 78.27739621617933,-10.715290638310691 L 77.59229197168428,-7.794566040856343 A 109.96504815468744 109.96504815468744 0 0 0 68.66285781872728,-9.503093070415403"/><text text-anchor="middle" pointer-events="none" font-size="8px" fill="#000000" x="50.76135011692161" y="-7.186917956283779" font-family="sans-serif">WROTE</text></g><g class="relationship" transform="translate(150.25859057443884 66.21186457068413) rotate(369.82419160412655)"><path class="outline" fill="#A5ABB6" stroke="none" d="M 24.018736134675446,6.953439040707552 L 24.277555179777966,5.987513214418485 A 105.84185801450627 105.84185801450627 0 0 0 26.88428741259178,6.650602251659706 L 26.650096924486594,7.622792981548173 A 106.84185801450627 106.84185801450627 0 0 1 24.018736134675446,6.953439040707552 Z M 73.37454284763707,8.36645941185769 L 73.17140992344437,7.387308241144552 A 105.84185801450627 105.84185801450627 0 0 0 75.79792392919246,6.807511567724255 L 75.11407878761577,3.886491913161493 L 82.72761064676835,5.6987095131391 L 76.70971745129472,10.702204440474604 L 76.02587230971803,7.781184785911842 A 106.84185801450627 106.84185801450627 0 0 1 73.37454284763707,8.36645941185769"/><text text-anchor="middle" pointer-events="none" font-size="8px" fill="#000000" x="49.97912078705062" y="13.08052041382011" font-family="sans-serif">DIRECTED</text></g><g class="relationship" transform="translate(150.25859057443884 66.21186457068413) rotate(369.82419160412655)"><path class="outline" fill="#A5ABB6" stroke="none" d="M 24.018736134675446,-6.953439040707552 L 24.277555179777966,-5.987513214418485 A 105.84185801450627 105.84185801450627 0 0 1 32.29429780927658,-7.8051209450252514 L 32.11122141249756,-8.788219634345097 A 106.84185801450627 106.84185801450627 0 0 0 24.018736134675446,-6.953439040707552 Z M 67.8790960004014,-9.35750124034412 L 67.72739841203457,-8.369074287209145 A 105.84185801450627 105.84185801450627 0 0 1 75.79792392919246,-6.807511567724255 L 75.11407878761577,-3.886491913161493 L 82.72761064676835,-5.6987095131391 L 76.70971745129472,-10.702204440474604 L 76.02587230971803,-7.781184785911842 A 106.84185801450627 106.84185801450627 0 0 0 67.8790960004014,-9.35750124034412"/><text text-anchor="middle" pointer-events="none" font-size="8px" fill="#000000" x="49.97912078705063" y="-7.0805204138201105" font-family="sans-serif">WROTE</text></g><g class="relationship" transform="translate(-58.85861389808738 104.89799492777675) rotate(284.268869760871)"><path class="outline" fill="#A5ABB6" stroke="none" d="M 21.40063509461097,12.933012701892217 L 21.90063509461097,12.06698729810778 A 57.9321093153495 57.9321093153495 0 0 0 31.685356341971147,16.560792271613813 L 31.354256134555907,17.504387869658643 A 58.9321093153495 58.9321093153495 0 0 1 21.40063509461097,12.933012701892217 Z M 66.85551038587847,18.618007809760485 L 66.58420123337494,17.655515553288872 A 57.9321093153495 57.9321093153495 0 0 0 76.63133586675215,13.783805506392184 L 75.29712001898015,11.096824287337231 L 83.1233280191757,11.118465398100009 L 78.41029033044815,17.36644713179879 L 77.07607448267615,14.679465912743836 A 58.9321093153495 58.9321093153495 0 0 1 66.85551038587847,18.618007809760485"/><text text-anchor="middle" pointer-events="none" font-size="8px" fill="#000000" x="49.03466514727826" y="23.299691414335335" font-family="sans-serif">WROTE</text></g><g class="relationship" transform="translate(-58.85861389808738 104.89799492777675) rotate(284.268869760871)"><path class="outline" fill="#A5ABB6" stroke="none" d="M 25 0.5 L 25.812106588983497 0.5 L 25.812106588983497 -0.5 L 25 -0.5 Z M 72.7027315889835 0.5 L 73.514838177967 0.5 L 73.514838177967 3.5 L 80.514838177967 0 L 73.514838177967 -3.5 L 73.514838177967 -0.5 L 72.7027315889835 -0.5 Z"/><text text-anchor="middle" pointer-events="none" font-size="8px" fill="#000000" x="49.2574190889835" y="3" font-family="sans-serif">DIRECTED</text></g><g class="relationship" transform="translate(-58.85861389808738 104.89799492777675) rotate(284.268869760871)"><path class="outline" fill="#A5ABB6" stroke="none" d="M 21.40063509461097,-12.933012701892217 L 21.90063509461097,-12.06698729810778 A 57.9321093153495 57.9321093153495 0 0 1 24.400593042428547,-13.42955077746091 L 23.94374627778218,-14.319096185875878 A 58.9321093153495 58.9321093153495 0 0 0 21.40063509461097,-12.933012701892217 Z M 74.45108997676115,-15.903434155080596 L 74.0508938782595,-14.987004625469034 A 57.9321093153495 57.9321093153495 0 0 1 76.63133586675215,-13.783805506392184 L 75.29712001898015,-11.096824287337231 L 83.1233280191757,-11.118465398100009 L 78.41029033044815,-17.36644713179879 L 77.07607448267615,-14.679465912743836 A 58.9321093153495 58.9321093153495 0 0 0 74.45108997676115,-15.903434155080596"/><text text-anchor="middle" pointer-events="none" font-size="8px" fill="#000000" x="49.03466514727824" y="-17.299691414335335" font-family="sans-serif">PRODUCED</text></g></g><g class="layer nodes"><g class="node" transform="translate(50.96047938425688,254.5826307166949)"><circle class="outline" cx="0" cy="0" r="25" fill="#F79767" stroke="#f36924" stroke-width="2px"/><text text-anchor="middle" pointer-events="none" font-family="sans-serif" dy="1.5625" font-size="25" fill="#FFFFFF"/><text text-anchor="middle" pointer-events="none" font-family="sans-serif" dy="1.5625" font-size="25" fill="#FFFFFF"/><text text-anchor="middle" pointer-events="none" x="0" y="0" font-size="10px" fill="#FFFFFF" font-family="sans-serif"> Jerry</text><text text-anchor="middle" pointer-events="none" x="0" y="10" font-size="10px" fill="#FFFFFF" font-family="sans-serif"> Maguire</text></g><g class="node" transform="translate(156.47272563697882,260.47137523595467)"><circle class="outline" cx="0" cy="0" r="25" fill="#57C7E3" stroke="#23b3d7" stroke-width="2px"/><text text-anchor="middle" pointer-events="none" font-family="sans-serif" dy="1.5625" font-size="25" fill="#2A2C34"/><text text-anchor="middle" pointer-events="none" font-family="sans-serif" dy="1.5625" font-size="25" fill="#2A2C34"/><text text-anchor="middle" pointer-events="none" x="0" y="0" font-size="10px" fill="#2A2C34" font-family="sans-serif"> Cameron</text><text text-anchor="middle" pointer-events="none" x="0" y="10" font-size="10px" fill="#2A2C34" font-family="sans-serif"> Crowe</text></g><g class="node" transform="translate(255.75795942357237,84.48064641877305)"><circle class="outline" cx="0" cy="0" r="25" fill="#F79767" stroke="#f36924" stroke-width="2px"/><text text-anchor="middle" pointer-events="none" font-family="sans-serif" dy="1.5625" font-size="25" fill="#FFFFFF"/><text text-anchor="middle" pointer-events="none" font-family="sans-serif" dy="1.5625" font-size="25" fill="#FFFFFF"/><text text-anchor="middle" pointer-events="none" x="0" y="0" font-size="10px" fill="#FFFFFF" font-family="sans-serif"> Speed</text><text text-anchor="middle" pointer-events="none" x="0" y="10" font-size="10px" fill="#FFFFFF" font-family="sans-serif"> Racer</text></g><g class="node" transform="translate(234.32035323751472,-22.0155971181671)"><circle class="outline" cx="0" cy="0" r="25" fill="#57C7E3" stroke="#23b3d7" stroke-width="2px"/><text text-anchor="middle" pointer-events="none" font-family="sans-serif" dy="1.5625" font-size="25" fill="#2A2C34"/><text text-anchor="middle" pointer-events="none" font-family="sans-serif" dy="1.5625" font-size="25" fill="#2A2C34"/><text text-anchor="middle" pointer-events="none" x="0" y="0" font-size="10px" fill="#2A2C34" font-family="sans-serif"> Lana</text><text text-anchor="middle" pointer-events="none" x="0" y="10" font-size="10px" fill="#2A2C34" font-family="sans-serif"> Wacho…</text></g><g class="node" transform="translate(150.25859057443884,66.21186457068413)"><circle class="outline" cx="0" cy="0" r="25" fill="#57C7E3" stroke="#23b3d7" stroke-width="2px"/><text text-anchor="middle" pointer-events="none" font-family="sans-serif" dy="1.5625" font-size="25" fill="#2A2C34"/><text text-anchor="middle" pointer-events="none" font-family="sans-serif" dy="1.5625" font-size="25" fill="#2A2C34"/><text text-anchor="middle" pointer-events="none" x="0" y="0" font-size="10px" fill="#2A2C34" font-family="sans-serif"> Lilly</text><text text-anchor="middle" pointer-events="none" x="0" y="10" font-size="10px" fill="#2A2C34" font-family="sans-serif"> Wacho…</text></g><g class="node" transform="translate(-32.85210945892368,2.6383117550897768)"><circle class="outline" cx="0" cy="0" r="25" fill="#F79767" stroke="#f36924" stroke-width="2px"/><text text-anchor="middle" pointer-events="none" font-family="sans-serif" dy="1.5625" font-size="25" fill="#FFFFFF"/><text text-anchor="middle" pointer-events="none" x="0" y="5" font-size="10px" fill="#FFFFFF" font-family="sans-serif"> Somethi…</text></g><g class="node" transform="translate(-58.85861389808738,104.89799492777675)"><circle class="outline" cx="0" cy="0" r="25" fill="#57C7E3" stroke="#23b3d7" stroke-width="2px"/><text text-anchor="middle" pointer-events="none" font-family="sans-serif" dy="1.5625" font-size="25" fill="#2A2C34"/><text text-anchor="middle" pointer-events="none" font-family="sans-serif" dy="1.5625" font-size="25" fill="#2A2C34"/><text text-anchor="middle" pointer-events="none" x="0" y="0" font-size="10px" fill="#2A2C34" font-family="sans-serif"> Nancy</text><text text-anchor="middle" pointer-events="none" x="0" y="10" font-size="10px" fill="#2A2C34" font-family="sans-serif"> Meyers</text></g></g></svg>