<svg xmlns="http://www.w3.org/2000/svg" width="169.7084503173828" height="211.48348999023438" viewBox="24.254714965820312 -19.728439331054688 169.7084503173828 211.48348999023438"><title>Neo4j Graph Visualization</title><desc>Created using Neo4j (http://www.neo4j.com/)</desc><g class="layer relationships"><g class="relationship" transform="translate(134.1137036470371 162.75505571237946) rotate(283.3732612848921)"><path class="outline" fill="#A5ABB6" stroke="none" d="M 17.324116139070416,18.03122292025696 L 18.031222920256962,17.324116139070412 A 46.997332554157744 46.997332554157744 0 0 0 32.85852886454273,27.335614625600883 L 32.46691458342944,28.25574410280946 A 47.997332554157744 47.997332554157744 0 0 1 17.324116139070416,18.03122292025696 Z M 66.06270748149379,29.75075177836881 L 65.75437051302136,28.79947457698468 A 46.997332554157744 46.997332554157744 0 0 0 81.41232874617928,20.144565710917064 L 79.4878169723809,17.843206453323535 L 87.10291897619723,16.03759811498644 L 83.97834444457712,23.213044721041765 L 82.05383267077873,20.911685463448237 A 47.997332554157744 47.997332554157744 0 0 1 66.06270748149379,29.75075177836881"/><text text-anchor="middle" pointer-events="none" font-size="8px" fill="#000000" x="49.15182102529313" y="34.542357901321004" font-family="sans-serif">ROUTE</text></g><g class="relationship" transform="translate(158.6958309477695 59.35606422438225) rotate(187.21289007847548)"><path class="outline" fill="#A5ABB6" stroke="none" d="M 5.987513214418485,-24.277555179777966 L 6.953439040707552,-24.018736134675446 A 45.87368042021109 45.87368042021109 0 0 1 32.179911018665905,-53.861358442644594 L 31.763896857342004,-54.770716577582625 A 46.87368042021109 46.87368042021109 0 0 0 5.987513214418485,-24.277555179777966 Z M 65.30036137643305,-56.86848649293897 L 65.00091082027701,-55.91437467327744 A 45.87368042021109 45.87368042021109 0 0 1 93.74961793551414,-29.448002918291294 L 90.97118774368184,-28.316488150771786 L 96.85289075836504,-23.153584931935843 L 97.45419152462387,-30.95668927498397 L 94.67576133279157,-29.82517450746446 A 46.87368042021109 46.87368042021109 0 0 0 65.30036137643305,-56.86848649293897"/><text text-anchor="middle" pointer-events="none" font-size="8px" fill="#000000" x="48.36890778159145" y="-55.42897565195729" transform="rotate(180 48.36890778159145 -58.42897565195729)" font-family="sans-serif">ROUTE</text></g><g class="relationship" transform="translate(134.1137036470371 162.75505571237946) rotate(283.3732612848921)"><path class="outline" fill="#A5ABB6" stroke="none" d="M 24.018736134675446,6.953439040707552 L 24.277555179777966,5.987513214418485 A 104.26512576195417 104.26512576195417 0 0 0 32.771906469850975,7.887428895410466 L 32.59455619225818,8.871576688700557 A 105.26512576195417 105.26512576195417 0 0 1 24.018736134675446,6.953439040707552 Z M 66.6027336180216,9.416626612904693 L 66.45701224980961,8.427300942133726 A 104.26512576195417 104.26512576195417 0 0 0 75.00788520292905,6.800569503433934 L 74.32468850904623,3.8793981155370196 L 81.93781789033565,5.6933057823568385 L 75.91881412810615,10.695464687296486 L 75.23561743422333,7.774293299399572 A 105.26512576195417 105.26512576195417 0 0 1 66.6027336180216,9.416626612904693"/><text text-anchor="middle" pointer-events="none" font-size="8px" fill="#000000" x="49.584497739422076" y="13.026808537709854" font-family="sans-serif">ROUTE</text></g><g class="relationship" transform="translate(158.6958309477695 59.35606422438225) rotate(187.21289007847548)"><path class="outline" fill="#A5ABB6" stroke="none" d="M 12.698856172145504,-21.540405101092272 L 13.549972844582506,-21.015428520757713 A 44.31124437141098 44.31124437141098 0 0 1 32.65111919179883,-37.96558105632161 L 32.231070222789725,-38.87308249633941 A 45.31124437141098 45.31124437141098 0 0 0 12.698856172145504,-21.540405101092272 Z M 65.74254600206983,-40.68883956705933 L 65.42301087348518,-39.741265136420566 A 44.31124437141098 44.31124437141098 0 0 1 86.24377901119341,-24.954207386061515 L 83.87554712320058,-23.112610870889448 L 90.93554286126037,-19.735265733273586 L 89.40142152851719,-27.409669406290938 L 87.03318964052436,-25.56807289111887 A 45.31124437141098 45.31124437141098 0 0 0 65.74254600206983,-40.68883956705933"/><text text-anchor="middle" pointer-events="none" font-size="8px" fill="#000000" x="48.839553930915045" y="-39.498673118191235" transform="rotate(180 48.839553930915045 -42.498673118191235)" font-family="sans-serif">ROUTE</text></g><g class="relationship" transform="translate(158.6958309477695 59.35606422438225) rotate(463.3732612848921)"><path class="outline" fill="#A5ABB6" stroke="none" d="M 24.018736134675446,6.953439040707552 L 24.277555179777966,5.987513214418485 A 104.26512576195417 104.26512576195417 0 0 0 32.771906469850975,7.887428895410466 L 32.59455619225818,8.871576688700557 A 105.26512576195417 105.26512576195417 0 0 1 24.018736134675446,6.953439040707552 Z M 66.6027336180216,9.416626612904693 L 66.45701224980961,8.427300942133726 A 104.26512576195417 104.26512576195417 0 0 0 75.00788520292905,6.800569503433934 L 74.32468850904623,3.8793981155370196 L 81.93781789033565,5.6933057823568385 L 75.91881412810615,10.695464687296486 L 75.23561743422333,7.774293299399572 A 105.26512576195417 105.26512576195417 0 0 1 66.6027336180216,9.416626612904693"/><text text-anchor="middle" pointer-events="none" font-size="8px" fill="#000000" x="49.584497739422076" y="13.026808537709854" transform="rotate(180 49.584497739422076 10.026808537709854)" font-family="sans-serif">ROUTE</text></g><g class="relationship" transform="translate(158.6958309477695 59.35606422438225) rotate(187.21289007847548)"><path class="outline" fill="#A5ABB6" stroke="none" d="M 18.343228848217933,-16.993409175968942 L 19.008024713831873,-16.246384104727944 A 48.52013777477447 48.52013777477447 0 0 1 32.884379744158075,-24.904888429229274 L 32.50557554441159,-25.830365267542597 A 49.52013777477447 49.52013777477447 0 0 0 18.343228848217933,-16.993409175968942 Z M 66.13875786502183,-27.233938943916733 L 65.83838014339364,-26.280118612643882 A 48.52013777477447 48.52013777477447 0 0 1 80.38790042216485,-18.80787760189665 L 78.58717045401217,-16.40842525150565 L 86.28674423443594,-15.006083067938919 L 82.78887371303507,-22.00714740241798 L 80.9881437448824,-19.607695052026983 A 49.52013777477447 49.52013777477447 0 0 0 66.13875786502183,-27.233938943916733"/><text text-anchor="middle" pointer-events="none" font-size="8px" fill="#000000" x="49.22009149544814" y="-25.978132805947162" transform="rotate(180 49.22009149544814 -28.978132805947162)" font-family="sans-serif">ROUTE</text></g><g class="relationship" transform="translate(158.6958309477695 59.35606422438225) rotate(187.21289007847548)"><path class="outline" fill="#A5ABB6" stroke="none" d="M 22.446385545045896,-11.018610437035811 L 22.869003806786598,-10.112302649999162 A 67.18831264361205 67.18831264361205 0 0 1 32.86332211120065,-13.838544186455302 L 32.58945469482538,-14.800311641845603 A 68.18831264361205 68.18831264361205 0 0 0 22.446385545045896,-11.018610437035811 Z M 66.46997783876688,-15.690242887396842 L 66.2469782433271,-14.71542435021481 A 67.18831264361205 67.18831264361205 0 0 1 76.42313260080024,-11.518995585039926 L 75.29976218538002,-8.737262508384553 L 83.10107151556616,-9.361420128501944 L 77.92095982136055,-15.227973020580425 L 76.79758940594033,-12.446239943925052 A 68.18831264361205 68.18831264361205 0 0 0 66.46997783876688,-15.690242887396842"/><text text-anchor="middle" pointer-events="none" font-size="8px" fill="#000000" x="49.48667271574623" y="-13.883985911872308" transform="rotate(180 49.48667271574623 -16.88398591187231)" font-family="sans-serif">ROUTE</text></g><g class="relationship" transform="translate(158.6958309477695 59.35606422438225) rotate(187.21289007847548)"><path class="outline" fill="#A5ABB6" stroke="none" d="M 24.663575034869986,-4.118017301971641 L 24.808506894177235,-3.1285756633906963 A 182.537538245882 182.537538245882 0 0 1 32.7067877101476,-4.110136038330296 L 32.605125201856424,-5.104954983871636 A 183.537538245882 183.537538245882 0 0 0 24.663575034869986,-4.118017301971641 Z M 66.64764141602866,-5.410029123734859 L 66.56382406804887,-4.413547988851917 A 182.537538245882 182.537538245882 0 0 1 74.4784275870155,-3.573695766649558 L 74.09689922680133,-0.5980553128392732 L 81.48517670594187,-3.1794030017848485 L 74.98713206730108,-7.541216371729938 L 74.6056037070869,-4.565575917919653 A 183.537538245882 183.537538245882 0 0 0 66.64764141602866,-5.410029123734859"/><text text-anchor="middle" pointer-events="none" font-size="8px" fill="#000000" x="49.623775211782196" y="-2.548523571286438" transform="rotate(180 49.623775211782196 -5.548523571286438)" font-family="sans-serif">ROUTE</text></g><g class="relationship" transform="translate(158.6958309477695 59.35606422438225) rotate(187.21289007847548)"><path class="outline" fill="#A5ABB6" stroke="none" d="M 24.663575034869986,4.118017301971641 L 24.808506894177235,3.1285756633906963 A 182.537538245882 182.537538245882 0 0 0 32.70678771014765,4.110136038330296 L 32.60512520185648,5.104954983871636 A 183.537538245882 183.537538245882 0 0 1 24.663575034869986,4.118017301971641 Z M 66.64764141602873,5.410029123734859 L 66.56382406804896,4.413547988851917 A 182.537538245882 182.537538245882 0 0 0 74.4784275870155,3.573695766649558 L 74.09689922680133,0.5980553128392732 L 81.48517670594187,3.1794030017848485 L 74.98713206730108,7.541216371729938 L 74.6056037070869,4.565575917919653 A 183.537538245882 183.537538245882 0 0 1 66.64764141602873,5.410029123734859"/><text text-anchor="middle" pointer-events="none" font-size="8px" fill="#000000" x="49.62377521178226" y="8.548523571286438" transform="rotate(180 49.62377521178226 5.548523571286438)" font-family="sans-serif">ROUTE</text></g><g class="relationship" transform="translate(158.6958309477695 59.35606422438225) rotate(187.21289007847548)"><path class="outline" fill="#A5ABB6" stroke="none" d="M 22.446385545045896,11.018610437035811 L 22.869003806786598,10.112302649999162 A 67.18831264361205 67.18831264361205 0 0 0 32.863322111200674,13.838544186455302 L 32.589454694825406,14.800311641845603 A 68.18831264361205 68.18831264361205 0 0 1 22.446385545045896,11.018610437035811 Z M 66.46997783876692,15.690242887396828 L 66.24697824332715,14.71542435021481 A 67.18831264361205 67.18831264361205 0 0 0 76.42313260080024,11.518995585039926 L 75.29976218538002,8.737262508384553 L 83.10107151556616,9.361420128501944 L 77.92095982136055,15.227973020580425 L 76.79758940594033,12.446239943925052 A 68.18831264361205 68.18831264361205 0 0 1 66.46997783876692,15.690242887396828"/><text text-anchor="middle" pointer-events="none" font-size="8px" fill="#000000" x="49.48667271574626" y="19.88398591187231" transform="rotate(180 49.48667271574626 16.88398591187231)" font-family="sans-serif">ROUTE</text></g><g class="relationship" transform="translate(158.6958309477695 59.35606422438225) rotate(463.3732612848921)"><path class="outline" fill="#A5ABB6" stroke="none" d="M 17.324116139070416,18.03122292025696 L 18.031222920256962,17.324116139070412 A 46.997332554157744 46.997332554157744 0 0 0 32.85852886454273,27.335614625600883 L 32.46691458342944,28.25574410280946 A 47.997332554157744 47.997332554157744 0 0 1 17.324116139070416,18.03122292025696 Z M 66.06270748149379,29.75075177836881 L 65.75437051302136,28.79947457698468 A 46.997332554157744 46.997332554157744 0 0 0 81.41232874617928,20.144565710917064 L 79.4878169723809,17.843206453323535 L 87.10291897619723,16.03759811498644 L 83.97834444457712,23.213044721041765 L 82.05383267077873,20.911685463448237 A 47.997332554157744 47.997332554157744 0 0 1 66.06270748149379,29.75075177836881"/><text text-anchor="middle" pointer-events="none" font-size="8px" fill="#000000" x="49.15182102529313" y="34.542357901321004" transform="rotate(180 49.15182102529313 31.542357901321004)" font-family="sans-serif">ROUTE</text></g><g class="relationship" transform="translate(158.6958309477695 59.35606422438225) rotate(187.21289007847548)"><path class="outline" fill="#A5ABB6" stroke="none" d="M 18.343228848217933,16.993409175968942 L 19.008024713831873,16.246384104727944 A 48.52013777477447 48.52013777477447 0 0 0 32.88437974415808,24.90488842922928 L 32.5055755444116,25.830365267542604 A 49.52013777477447 49.52013777477447 0 0 1 18.343228848217933,16.993409175968942 Z M 66.13875786502183,27.233938943916733 L 65.83838014339364,26.280118612643882 A 48.52013777477447 48.52013777477447 0 0 0 80.38790042216485,18.80787760189665 L 78.58717045401217,16.40842525150565 L 86.28674423443594,15.006083067938919 L 82.78887371303507,22.00714740241798 L 80.9881437448824,19.607695052026983 A 49.52013777477447 49.52013777477447 0 0 1 66.13875786502183,27.233938943916733"/><text text-anchor="middle" pointer-events="none" font-size="8px" fill="#000000" x="49.22009149544814" y="31.978132805947162" transform="rotate(180 49.22009149544814 28.978132805947162)" font-family="sans-serif">ROUTE</text></g><g class="relationship" transform="translate(158.6958309477695 59.35606422438225) rotate(187.21289007847548)"><path class="outline" fill="#A5ABB6" stroke="none" d="M 12.698856172145504,21.540405101092272 L 13.549972844582506,21.015428520757713 A 44.31124437141098 44.31124437141098 0 0 0 32.65111919179884,37.96558105632161 L 32.23107022278973,38.87308249633942 A 45.31124437141098 45.31124437141098 0 0 1 12.698856172145504,21.540405101092272 Z M 65.74254600206984,40.68883956705933 L 65.4230108734852,39.741265136420566 A 44.31124437141098 44.31124437141098 0 0 0 86.24377901119341,24.954207386061515 L 83.87554712320058,23.112610870889448 L 90.93554286126037,19.735265733273586 L 89.40142152851719,27.409669406290938 L 87.03318964052436,25.56807289111887 A 45.31124437141098 45.31124437141098 0 0 1 65.74254600206984,40.68883956705933"/><text text-anchor="middle" pointer-events="none" font-size="8px" fill="#000000" x="48.83955393091506" y="45.49867311819125" transform="rotate(180 48.83955393091506 42.49867311819125)" font-family="sans-serif">ROUTE</text></g><g class="relationship" transform="translate(158.6958309477695 59.35606422438225) rotate(187.21289007847548)"><path class="outline" fill="#A5ABB6" stroke="none" d="M 5.987513214418485,24.277555179777966 L 6.953439040707552,24.018736134675446 A 45.87368042021109 45.87368042021109 0 0 0 32.17991101866592,53.8613584426446 L 31.763896857342022,54.770716577582625 A 46.87368042021109 46.87368042021109 0 0 1 5.987513214418485,24.277555179777966 Z M 65.30036137643305,56.86848649293897 L 65.00091082027701,55.91437467327744 A 45.87368042021109 45.87368042021109 0 0 0 93.74961793551414,29.448002918291294 L 90.97118774368184,28.316488150771786 L 96.85289075836504,23.153584931935843 L 97.45419152462387,30.95668927498397 L 94.67576133279157,29.82517450746446 A 46.87368042021109 46.87368042021109 0 0 1 65.30036137643305,56.86848649293897"/><text text-anchor="middle" pointer-events="none" font-size="8px" fill="#000000" x="48.36890778159147" y="61.42897565195729" transform="rotate(180 48.36890778159147 58.42897565195729)" font-family="sans-serif">ROUTE</text></g></g><g class="layer nodes"><g class="node" transform="translate(134.1137036470371,162.75505571237946)"><circle class="outline" cx="0" cy="0" r="25" fill="#ECB5C9" stroke="#da7298" stroke-width="2px"/><text text-anchor="middle" pointer-events="none" font-family="sans-serif" dy="1.5625" font-size="25" fill="#2A2C34"/><text text-anchor="middle" pointer-events="none" x="0" y="5" font-size="10px" fill="#2A2C34" font-family="sans-serif"> MSN</text></g><g class="node" transform="translate(158.6958309477695,59.35606422438225)"><circle class="outline" cx="0" cy="0" r="25" fill="#ECB5C9" stroke="#da7298" stroke-width="2px"/><text text-anchor="middle" pointer-events="none" font-family="sans-serif" dy="1.5625" font-size="25" fill="#2A2C34"/><text text-anchor="middle" pointer-events="none" x="0" y="5" font-size="10px" fill="#2A2C34" font-family="sans-serif"> ORD</text></g><g class="node" transform="translate(53.25471667948727,46.01165299413814)"><circle class="outline" cx="0" cy="0" r="25" fill="#ECB5C9" stroke="#da7298" stroke-width="2px"/><text text-anchor="middle" pointer-events="none" font-family="sans-serif" dy="1.5625" font-size="25" fill="#2A2C34"/><text text-anchor="middle" pointer-events="none" x="0" y="5" font-size="10px" fill="#2A2C34" font-family="sans-serif"> GRR</text></g></g></svg>