<svg xmlns="http://www.w3.org/2000/svg" width="270.1028137207031" height="318.6943359375" viewBox="-39.93697738647461 -58.251708984375 270.1028137207031 318.6943359375"><title>Neo4j Graph Visualization</title><desc>Created using Neo4j (http://www.neo4j.com/)</desc><g class="layer relationships"><g class="relationship" transform="translate(24.667842400067435 127.54006442903952) rotate(437.84555941418074)"><path class="outline" fill="#A5ABB6" stroke="none" d="M 5.987513214418485,-24.277555179777966 L 6.953439040707552,-24.018736134675446 A 45.87523779191036 45.87523779191036 0 0 1 32.18135088124552,-53.86263848426719 L 31.765349438018433,-54.77200243738661 A 46.87523779191036 46.87523779191036 0 0 0 5.987513214418485,-24.277555179777966 Z M 65.30185636403176,-56.86971861093928 L 65.0024159555313,-55.91560360646808 A 45.87523779191036 45.87523779191036 0 0 1 93.75262255586834,-29.448044902956244 L 90.97418857340983,-28.31653944334953 L 96.85587429202708,-23.15361652048753 L 97.45720119914634,-30.956718849098532 L 94.67876721668783,-29.825213389491818 A 46.87523779191036 46.87523779191036 0 0 0 65.30185636403176,-56.86971861093928"/><text text-anchor="middle" pointer-events="none" font-size="8px" fill="#000000" x="48.3703923889685" y="-55.43013175779914" font-family="sans-serif">ROUTE</text></g><g class="relationship" transform="translate(47.04590440011047 231.44262428180525) rotate(257.84555941418074)"><path class="outline" fill="#A5ABB6" stroke="none" d="M 8.959806512219979,23.34463251506822 L 9.886053468830289,22.967715315447215 A 44.67433036829376 44.67433036829376 0 0 0 32.40788471576634,46.628395955772675 L 31.985771364769523,47.534939015373396 A 45.67433036829376 45.67433036829376 0 0 1 8.959806512219979,23.34463251506822 Z M 65.49712279033884,49.529719730453834 L 65.1855340562618,48.579502670621565 A 44.67433036829376 44.67433036829376 0 0 0 90.35520933886585,27.757683892061312 L 87.73023255652491,26.30527317460878 L 94.18166380997859,21.874806519507867 L 93.8551783819871,29.69423151533136 L 91.23020159964616,28.241820797878827 A 45.67433036829376 45.67433036829376 0 0 1 65.49712279033884,49.529719730453834"/><text text-anchor="middle" pointer-events="none" font-size="8px" fill="#000000" x="48.58124174947675" y="54.22370141639901" transform="rotate(180 48.58124174947675 51.22370141639901)" font-family="sans-serif">ROUTE</text></g><g class="relationship" transform="translate(24.667842400067435 127.54006442903952) rotate(360.2597424211086)"><path class="outline" fill="#A5ABB6" stroke="none" d="M 5.987513214418485,-24.277555179777966 L 6.953439040707552,-24.018736134675446 A 48.34821663104122 48.34821663104122 0 0 1 34.47396717428359,-55.886233817303804 L 34.07725630670939,-56.804177436241545 A 49.34821663104122 49.34821663104122 0 0 0 5.987513214418485,-24.277555179777966 Z M 67.67571794029314,-58.81961145746915 L 67.3915843128213,-57.86082676748934 A 48.34821663104122 48.34821663104122 0 0 1 98.5242612998257,-29.511694489302627 L 95.74008221608042,-28.394400065421706 L 101.59531146950538,-23.201492364543835 L 102.23650007815272,-31.00142038781052 L 99.45232099440744,-29.8841259639296 A 49.34821663104122 49.34821663104122 0 0 0 67.67571794029314,-58.81961145746915"/><text text-anchor="middle" pointer-events="none" font-size="8px" fill="#000000" x="50.72928351676058" y="-57.2658645006057" font-family="sans-serif">ROUTE</text></g><g class="relationship" transform="translate(135.57280110178763 128.04284002737595) rotate(308.50082675810813)"><path class="outline" fill="#A5ABB6" stroke="none" d="M 24.018736134675446,-6.953439040707552 L 24.277555179777966,-5.987513214418485 A 102.43453842993101 102.43453842993101 0 0 1 32.31875648776942,-7.798812952084873 L 32.138438321679416,-8.782421288252237 A 103.43453842993101 103.43453842993101 0 0 0 24.018736134675446,-6.953439040707552 Z M 66.14405181943279,-9.331877495218833 L 65.99560539669262,-8.342957043627479 A 102.43453842993101 102.43453842993101 0 0 1 74.09112708341752,-6.7923913935885105 L 73.40869429740091,-3.8710414500573314 L 81.0213490826597,-5.686939883471648 L 75.00103746477298,-10.687524651630083 L 74.31860467875637,-7.766174708098904 A 103.43453842993101 103.43453842993101 0 0 0 66.14405181943279,-9.331877495218833"/><text text-anchor="middle" pointer-events="none" font-size="8px" fill="#000000" x="49.12658505972445" y="-6.964451294768679" font-family="sans-serif">ROUTE</text></g><g class="relationship" transform="translate(201.16582580640736 45.58354870841099) rotate(223.33010384360387)"><path class="outline" fill="#A5ABB6" stroke="none" d="M 17.324116139070416,-18.03122292025696 L 18.031222920256962,-17.324116139070412 A 49.0281884121806 49.0281884121806 0 0 1 34.21246402893232,-28.06516791806974 L 33.83539679504945,-28.991353807150283 A 50.0281884121806 50.0281884121806 0 0 0 17.324116139070416,-18.03122292025696 Z M 67.47655944104166,-30.45192242288232 L 67.1811825246622,-29.496541620652046 A 49.0281884121806 49.0281884121806 0 0 1 84.2324512083826,-20.19831633773886 L 82.30296544842659,-17.9011257269869 L 89.91414359346317,-16.079047999633474 L 86.80509888832395,-23.261237152074802 L 84.87561312836795,-20.964046541322844 A 50.0281884121806 50.0281884121806 0 0 0 67.47655944104166,-30.45192242288232"/><text text-anchor="middle" pointer-events="none" font-size="8px" fill="#000000" x="50.5510896219608" y="-29.13752663848164" transform="rotate(180 50.5510896219608 -32.13752663848164)" font-family="sans-serif">ROUTE</text></g><g class="relationship" transform="translate(24.667842400067435 127.54006442903952) rotate(437.84555941418074)"><path class="outline" fill="#A5ABB6" stroke="none" d="M 11.793029395533932,-22.049364110469778 L 12.665220659930537,-21.560199109360486 A 44.25668649391895 44.25668649391895 0 0 1 32.59825833675294,-40.03852231663424 L 32.1764631425538,-40.94521345155866 A 45.25668649391895 45.25668649391895 0 0 0 11.793029395533932,-22.049364110469778 Z M 65.68371821233097,-42.80989817120495 L 65.36513098648088,-41.86200462257982 A 44.25668649391895 44.25668649391895 0 0 1 87.22538122321966,-25.709485340274174 L 84.78779259689345,-23.960725297042075 L 91.71208609514892,-20.313238552718374 L 90.4754993916546,-28.04116539791697 L 88.03791076532839,-26.29240535468487 A 45.25668649391895 45.25668649391895 0 0 0 65.68371821233097,-42.80989817120495"/><text text-anchor="middle" pointer-events="none" font-size="8px" fill="#000000" x="48.77864629587965" y="-41.5989196261021" font-family="sans-serif">ROUTE</text></g><g class="relationship" transform="translate(24.667842400067435 127.54006442903952) rotate(437.84555941418074)"><path class="outline" fill="#A5ABB6" stroke="none" d="M 14.443205749454206,-20.411854586953456 L 15.247803529220873,-19.818034401379958 A 44.76486685346069 44.76486685346069 0 0 1 32.746066375885306,-33.9901794853346 L 32.332361367093384,-34.900590472581825 A 45.76486685346069 45.76486685346069 0 0 0 14.443205749454206,-20.411854586953456 Z M 65.86192077536653,-36.61049212157535 L 65.54297732009464,-35.6627183762441 A 44.76486685346069 44.76486685346069 0 0 1 84.39218140436105,-23.344179326450462 L 82.17213691042322,-21.326407673131804 L 89.47032267776089,-18.500370782815295 L 87.3522407296115,-26.034541530875337 L 85.13219623567366,-24.01676987755668 A 45.76486685346069 45.76486685346069 0 0 0 65.86192077536653,-36.61049212157535"/><text text-anchor="middle" pointer-events="none" font-size="8px" fill="#000000" x="48.960146555723114" y="-35.44187460110092" font-family="sans-serif">ROUTE</text></g><g class="relationship" transform="translate(24.667842400067435 127.54006442903952) rotate(437.84555941418074)"><path class="outline" fill="#A5ABB6" stroke="none" d="M 16.86920063166904,-18.45752069072379 L 17.593716292528317,-17.768262352239844 A 46.47490942929089 46.47490942929089 0 0 1 32.84643011886956,-28.404171463554775 L 32.45010689590084,-29.322282515081596 A 47.47490942929089 47.47490942929089 0 0 0 16.86920063166904,-18.45752069072379 Z M 66.0318808284461,-30.855122125842634 L 65.72084569441655,-29.904723711808174 A 46.47490942929089 46.47490942929089 0 0 1 81.87906779340159,-20.702566340175927 L 79.90293364973557,-18.44537918660682 L 87.47519350900717,-16.467784530550087 L 84.5139133182896,-23.7121492116014 L 82.53777917462358,-21.454962058032294 A 47.47490942929089 47.47490942929089 0 0 0 66.0318808284461,-30.855122125842634"/><text text-anchor="middle" pointer-events="none" font-size="8px" fill="#000000" x="49.12357708031014" y="-29.661093976275076" font-family="sans-serif">ROUTE</text></g><g class="relationship" transform="translate(24.667842400067435 127.54006442903952) rotate(360.2597424211086)"><path class="outline" fill="#A5ABB6" stroke="none" d="M 14.44320574945421,-20.411854586953456 L 15.247803529220876,-19.818034401379958 A 47.73369698032963 47.73369698032963 0 0 1 35.006058154866345,-35.41311918246412 L 34.615387137021926,-36.33364954905525 A 48.73369698032963 48.73369698032963 0 0 0 14.44320574945421,-20.411854586953456 Z M 68.22078855790637,-37.97859260974809 L 67.9218874007843,-37.024308533452626 A 47.73369698032963 47.73369698032963 0 0 1 89.10875867108462,-23.433437297333665 L 86.88048823902196,-21.424753429325733 L 94.16706610178024,-18.568920267188794 L 92.07978591383483,-26.111682454677577 L 89.85151548177217,-24.102998586669646 A 48.73369698032963 48.73369698032963 0 0 0 68.22078855790637,-37.97859260974809"/><text text-anchor="middle" pointer-events="none" font-size="8px" fill="#000000" x="51.296073366467496" y="-36.64881867546706" font-family="sans-serif">ROUTE</text></g><g class="relationship" transform="translate(24.667842400067435 127.54006442903952) rotate(360.2597424211086)"><path class="outline" fill="#A5ABB6" stroke="none" d="M 20.90208894244944,-13.724164012497553 L 21.434121018964774,-12.87743981326927 A 60.560463443702595 60.560463443702595 0 0 1 35.16369344160346,-19.26805035358526 L 34.858369874929735,-20.22029901839589 A 61.560463443702595 61.560463443702595 0 0 0 20.90208894244944,-13.724164012497553 Z M 68.67847725347049,-21.29836337412194 L 68.43442049571783,-20.32860242471469 A 60.560463443702595 60.560463443702595 0 0 1 82.54312597713275,-14.8253768591785 L 81.11204895783257,-12.188708779038164 L 88.93386433401022,-11.925641827501476 L 84.45122866953298,-18.340934299365614 L 83.0201516502328,-15.704266219225277 A 61.560463443702595 61.560463443702595 0 0 0 68.67847725347049,-21.29836337412194"/><text text-anchor="middle" pointer-events="none" font-size="8px" fill="#000000" x="51.70882854109938" y="-19.628894984160986" font-family="sans-serif">ROUTE</text></g><g class="relationship" transform="translate(24.667842400067435 127.54006442903952) rotate(437.84555941418074)"><path class="outline" fill="#A5ABB6" stroke="none" d="M 19.03335875203862,-16.21669678498661 L 19.666546661272758,-15.442698676720381 A 49.90456843690057 49.90456843690057 0 0 1 32.897271220554615,-23.21788052535058 L 32.52920381979678,-24.147679637255607 A 50.90456843690057 50.90456843690057 0 0 0 19.03335875203862,-16.21669678498661 Z M 66.19268954581615,-25.48342789125264 L 65.89945115890686,-24.52738853618255 A 49.90456843690057 49.90456843690057 0 0 1 79.70463853157074,-17.82497652642856 L 77.99502816454812,-15.359772195552758 L 85.74171703145137,-14.246753058521765 L 81.98411902093422,-21.111915634262964 L 80.2745086539116,-18.64671130338716 A 50.90456843690057 50.90456843690057 0 0 0 66.19268954581615,-25.48342789125264"/><text text-anchor="middle" pointer-events="none" font-size="8px" fill="#000000" x="49.26706359498931" y="-24.181592407531546" font-family="sans-serif">ROUTE</text></g><g class="relationship" transform="translate(24.667842400067435 127.54006442903952) rotate(437.84555941418074)"><path class="outline" fill="#A5ABB6" stroke="none" d="M 20.902088942449435,-13.724164012497559 L 21.43412101896477,-12.877439813269275 A 56.07067000074224 56.07067000074224 0 0 1 32.9008034347617,-18.378941729282865 L 32.573275467358044,-19.323783213643296 A 57.07067000074224 57.07067000074224 0 0 0 20.902088942449435,-13.724164012497559 Z M 66.34126237633613,-20.444513533917842 L 66.07710310914908,-19.48003446127852 A 56.07067000074224 56.07067000074224 0 0 1 77.8833301723009,-14.750940310180535 L 76.45917307764431,-12.110528113242466 L 84.28165148093248,-11.867975788804854 L 79.78220629850968,-18.271489906097962 L 78.35804920385308,-15.631077709159893 A 57.07067000074224 57.07067000074224 0 0 0 66.34126237633613,-20.444513533917842"/><text text-anchor="middle" pointer-events="none" font-size="8px" fill="#000000" x="49.38901754822438" y="-18.94058554632609" font-family="sans-serif">ROUTE</text></g><g class="relationship" transform="translate(24.667842400067435 127.54006442903952) rotate(437.84555941418074)"><path class="outline" fill="#A5ABB6" stroke="none" d="M 22.446385545045896,-11.018610437035811 L 22.869003806786598,-10.112302649999162 A 67.19187213377482 67.19187213377482 0 0 1 32.8647487964318,-13.83899707171711 L 32.590894732981994,-14.800768329310124 A 68.19187213377482 68.19187213377482 0 0 0 22.446385545045896,-11.018610437035811 Z M 66.4714430320588,-15.690677274308534 L 66.2484556503491,-14.7158559431928 A 67.19187213377482 67.19187213377482 0 0 1 76.42605417093715,-11.519036028870909 L 75.30267998768274,-8.73730447381433 L 83.10399016327823,-9.361451527120057 L 77.92388641527636,-15.228011435613016 L 76.80051223202194,-12.446279880556437 A 68.19187213377482 68.19187213377482 0 0 0 66.4714430320588,-15.690677274308534"/><text text-anchor="middle" pointer-events="none" font-size="8px" fill="#000000" x="49.48812938553201" y="-13.884319384840005" font-family="sans-serif">ROUTE</text></g><g class="relationship" transform="translate(24.667842400067435 127.54006442903952) rotate(360.2597424211086)"><path class="outline" fill="#A5ABB6" stroke="none" d="M 24.471206027250748,-5.139073415689509 L 24.657117634413662,-4.15650694245622 A 155.97257722496647 155.97257722496647 0 0 1 35.029846600743724,-5.759716108599463 L 34.910438536388654,-6.75256137054464 A 156.97257722496647 156.97257722496647 0 0 0 24.471206027250748,-5.139073415689509 Z M 68.94994383123938,-7.128659567387558 L 68.85250188333998,-6.1334183570322125 A 155.97257722496647 155.97257722496647 0 0 1 79.25812158987011,-4.759786542308882 L 78.76565249230642,-1.8004835520855433 L 86.24524008331852,-4.1039091463641455 L 79.91474705328837,-8.705523862606668 L 79.42227795572467,-5.746220872383329 A 156.97257722496647 156.97257722496647 0 0 0 68.94994383123938,-7.128659567387558"/><text text-anchor="middle" pointer-events="none" font-size="8px" fill="#000000" x="51.92548990406614" y="-4.36610901751979" font-family="sans-serif">ROUTE</text></g><g class="relationship" transform="translate(24.667842400067435 127.54006442903952) rotate(360.2597424211086)"><path class="outline" fill="#A5ABB6" stroke="none" d="M 24.471206027250748,5.139073415689509 L 24.657117634413662,4.15650694245622 A 155.97257722496647 155.97257722496647 0 0 0 35.02984660074374,5.759716108599463 L 34.91043853638867,6.75256137054464 A 156.97257722496647 156.97257722496647 0 0 1 24.471206027250748,5.139073415689509 Z M 68.94994383123944,7.128659567387558 L 68.85250188334003,6.1334183570322125 A 155.97257722496647 155.97257722496647 0 0 0 79.25812158987011,4.759786542308882 L 78.76565249230642,1.8004835520855433 L 86.24524008331852,4.1039091463641455 L 79.91474705328837,8.705523862606668 L 79.42227795572467,5.746220872383329 A 156.97257722496647 156.97257722496647 0 0 1 68.94994383123944,7.128659567387558"/><text text-anchor="middle" pointer-events="none" font-size="8px" fill="#000000" x="51.925489904066175" y="10.36610901751979" font-family="sans-serif">ROUTE</text></g><g class="relationship" transform="translate(24.667842400067435 127.54006442903952) rotate(437.84555941418074)"><path class="outline" fill="#A5ABB6" stroke="none" d="M 23.64227862606639,-8.14203054326402 L 23.948923366999725,-7.190206503402699 A 89.08221468570648 89.08221468570648 0 0 1 32.80245136182829,-9.547511564995034 L 32.59519265463991,-10.525797733912185 A 90.08221468570648 90.08221468570648 0 0 0 23.64227862606639,-8.14203054326402 Z M 66.57398584682625,-11.171546409891889 L 66.40404697610498,-10.186091804028194 A 89.08221468570648 89.08221468570648 0 0 1 75.34074830932627,-8.166880475458893 L 74.52997258771222,-5.278517144913163 L 82.21539203420198,-6.756464346783734 L 76.42178260481168,-12.018031582853197 L 75.61100688319763,-9.129668252307468 A 90.08221468570648 90.08221468570648 0 0 0 66.57398584682625,-11.171546409891889"/><text text-anchor="middle" pointer-events="none" font-size="8px" fill="#000000" x="49.56336159284855" y="-8.965654923037732" font-family="sans-serif">ROUTE</text></g><g class="relationship" transform="translate(24.667842400067435 127.54006442903952) rotate(360.2597424211086)"><path class="outline" fill="#A5ABB6" stroke="none" d="M 20.90208894244944,13.724164012497553 L 21.434121018964774,12.87743981326927 A 60.560463443702595 60.560463443702595 0 0 0 35.16369344160347,19.26805035358526 L 34.858369874929735,20.22029901839589 A 61.560463443702595 61.560463443702595 0 0 1 20.90208894244944,13.724164012497553 Z M 68.67847725347049,21.29836337412194 L 68.43442049571783,20.32860242471469 A 60.560463443702595 60.560463443702595 0 0 0 82.54312597713275,14.8253768591785 L 81.11204895783257,12.188708779038164 L 88.93386433401022,11.925641827501476 L 84.45122866953298,18.340934299365614 L 83.0201516502328,15.704266219225277 A 61.560463443702595 61.560463443702595 0 0 1 68.67847725347049,21.29836337412194"/><text text-anchor="middle" pointer-events="none" font-size="8px" fill="#000000" x="51.708828541099386" y="25.628894984160986" font-family="sans-serif">ROUTE</text></g><g class="relationship" transform="translate(24.667842400067435 127.54006442903952) rotate(437.84555941418074)"><path class="outline" fill="#A5ABB6" stroke="none" d="M 24.471206027250748,-5.139073415689509 L 24.657117634413662,-4.156506942456222 A 143.1239220762328 143.1239220762328 0 0 1 32.73103716335177,-5.446484529111132 L 32.601537645878786,-6.4380640140614105 A 144.1239220762328 144.1239220762328 0 0 0 24.471206027250748,-5.139073415689509 Z M 66.63803999909213,-6.829485642329445 L 66.53137815027084,-5.835190288822247 A 143.1239220762328 143.1239220762328 0 0 1 74.6328280911759,-4.731230330830224 L 74.14302921462617,-1.7714842166287674 L 81.62053550373759,-4.0816573045810935 L 75.28589325990886,-8.677558483098831 L 74.79609438335913,-5.717812368897375 A 144.1239220762328 144.1239220762328 0 0 0 66.63803999909213,-6.829485642329445"/><text text-anchor="middle" pointer-events="none" font-size="8px" fill="#000000" x="49.61394230338359" y="-4.142165389159572" font-family="sans-serif">ROUTE</text></g><g class="relationship" transform="translate(24.667842400067435 127.54006442903952) rotate(360.2597424211086)"><path class="outline" fill="#A5ABB6" stroke="none" d="M 14.44320574945421,20.411854586953456 L 15.247803529220876,19.818034401379958 A 47.73369698032963 47.73369698032963 0 0 0 35.00605815486635,35.41311918246413 L 34.615387137021926,36.33364954905526 A 48.73369698032963 48.73369698032963 0 0 1 14.44320574945421,20.411854586953456 Z M 68.22078855790636,37.97859260974809 L 67.92188740078429,37.02430853345263 A 47.73369698032963 47.73369698032963 0 0 0 89.10875867108462,23.433437297333665 L 86.88048823902196,21.424753429325733 L 94.16706610178024,18.568920267188794 L 92.07978591383483,26.111682454677577 L 89.85151548177217,24.102998586669646 A 48.73369698032963 48.73369698032963 0 0 1 68.22078855790636,37.97859260974809"/><text text-anchor="middle" pointer-events="none" font-size="8px" fill="#000000" x="51.29607336646749" y="42.64881867546706" font-family="sans-serif">ROUTE</text></g><g class="relationship" transform="translate(24.667842400067435 127.54006442903952) rotate(437.84555941418074)"><path class="outline" fill="#A5ABB6" stroke="none" d="M 24.920301479990872,-2.0563497140235683 L 24.982594310235722,-1.0582917982190363 A 421.925309823311 421.925309823311 0 0 1 32.667430569798455,-1.4676135988914893 L 32.62335147568331,-2.466641643273647 A 422.925309823311 422.925309823311 0 0 0 24.920301479990872,-2.0563497140235683 Z M 66.65415547375703,-2.5976465892787814 L 66.61776928663306,-1.5983087858376166 A 421.925309823311 421.925309823311 0 0 1 74.30552918287941,-1.2481653145829805 L 74.14170862529214,1.7473584835050586 L 81.32238813801605,-1.3651713132273338 L 74.52395659299579,-5.242197045367033 L 74.36013603540852,-2.2466732472789936 A 422.925309823311 422.925309823311 0 0 0 66.65415547375703,-2.5976465892787814"/><text text-anchor="middle" pointer-events="none" font-size="8px" fill="#000000" x="49.63936004776199" y="0.6254237384214889" font-family="sans-serif">ROUTE</text></g><g class="relationship" transform="translate(24.667842400067435 127.54006442903952) rotate(437.84555941418074)"><path class="outline" fill="#A5ABB6" stroke="none" d="M 24.920301479990872,2.0563497140235683 L 24.982594310235722,1.0582917982190363 A 421.925309823311 421.925309823311 0 0 0 32.66743056979854,1.4676135988914893 L 32.623351475683386,2.466641643273647 A 422.925309823311 422.925309823311 0 0 1 24.920301479990872,2.0563497140235683 Z M 66.65415547375719,2.5976465892787814 L 66.61776928663322,1.5983087858376166 A 421.925309823311 421.925309823311 0 0 0 74.30552918287941,1.2481653145829805 L 74.14170862529214,-1.7473584835050586 L 81.32238813801605,1.3651713132273338 L 74.52395659299579,5.242197045367033 L 74.36013603540852,2.2466732472789936 A 422.925309823311 422.925309823311 0 0 1 66.65415547375719,2.5976465892787814"/><text text-anchor="middle" pointer-events="none" font-size="8px" fill="#000000" x="49.6393600477621" y="5.374576261578511" font-family="sans-serif">ROUTE</text></g><g class="relationship" transform="translate(24.667842400067435 127.54006442903952) rotate(437.84555941418074)"><path class="outline" fill="#A5ABB6" stroke="none" d="M 24.471206027250748,5.139073415689509 L 24.657117634413662,4.156506942456222 A 143.1239220762328 143.1239220762328 0 0 0 32.73103716335178,5.446484529111132 L 32.60153764587879,6.4380640140614105 A 144.1239220762328 144.1239220762328 0 0 1 24.471206027250748,5.139073415689509 Z M 66.63803999909213,6.829485642329445 L 66.53137815027084,5.835190288822247 A 143.1239220762328 143.1239220762328 0 0 0 74.6328280911759,4.731230330830224 L 74.14302921462617,1.7714842166287674 L 81.62053550373759,4.0816573045810935 L 75.28589325990886,8.677558483098831 L 74.79609438335913,5.717812368897375 A 144.1239220762328 144.1239220762328 0 0 1 66.63803999909213,6.829485642329445"/><text text-anchor="middle" pointer-events="none" font-size="8px" fill="#000000" x="49.613942303383595" y="10.142165389159572" font-family="sans-serif">ROUTE</text></g><g class="relationship" transform="translate(24.667842400067435 127.54006442903952) rotate(437.84555941418074)"><path class="outline" fill="#A5ABB6" stroke="none" d="M 23.64227862606639,8.14203054326402 L 23.948923366999725,7.190206503402699 A 89.08221468570648 89.08221468570648 0 0 0 32.80245136182833,9.547511564995048 L 32.595192654639945,10.5257977339122 A 90.08221468570648 90.08221468570648 0 0 1 23.64227862606639,8.14203054326402 Z M 66.57398584682626,11.171546409891889 L 66.40404697610498,10.186091804028194 A 89.08221468570648 89.08221468570648 0 0 0 75.34074830932627,8.166880475458893 L 74.52997258771222,5.278517144913163 L 82.21539203420198,6.756464346783734 L 76.42178260481168,12.018031582853197 L 75.61100688319763,9.129668252307468 A 90.08221468570648 90.08221468570648 0 0 1 66.57398584682626,11.171546409891889"/><text text-anchor="middle" pointer-events="none" font-size="8px" fill="#000000" x="49.56336159284857" y="14.965654923037732" font-family="sans-serif">ROUTE</text></g><g class="relationship" transform="translate(24.667842400067435 127.54006442903952) rotate(360.2597424211086)"><path class="outline" fill="#A5ABB6" stroke="none" d="M 5.987513214418485,24.277555179777966 L 6.953439040707552,24.018736134675446 A 48.34821663104122 48.34821663104122 0 0 0 34.4739671742836,55.886233817303804 L 34.07725630670941,56.80417743624156 A 49.34821663104122 49.34821663104122 0 0 1 5.987513214418485,24.277555179777966 Z M 67.67571794029315,58.81961145746915 L 67.39158431282131,57.86082676748933 A 48.34821663104122 48.34821663104122 0 0 0 98.5242612998257,29.511694489302627 L 95.74008221608042,28.394400065421706 L 101.59531146950538,23.201492364543835 L 102.23650007815272,31.00142038781052 L 99.45232099440744,29.8841259639296 A 49.34821663104122 49.34821663104122 0 0 1 67.67571794029315,58.81961145746915"/><text text-anchor="middle" pointer-events="none" font-size="8px" fill="#000000" x="50.729283516760596" y="63.2658645006057" font-family="sans-serif">ROUTE</text></g><g class="relationship" transform="translate(24.667842400067435 127.54006442903952) rotate(437.84555941418074)"><path class="outline" fill="#A5ABB6" stroke="none" d="M 22.446385545045896,11.018610437035811 L 22.869003806786598,10.112302649999162 A 67.19187213377482 67.19187213377482 0 0 0 32.86474879643179,13.83899707171711 L 32.59089473298199,14.800768329310124 A 68.19187213377482 68.19187213377482 0 0 1 22.446385545045896,11.018610437035811 Z M 66.4714430320588,15.690677274308534 L 66.24845565034911,14.7158559431928 A 67.19187213377482 67.19187213377482 0 0 0 76.42605417093715,11.519036028870909 L 75.30267998768274,8.73730447381433 L 83.10399016327823,9.361451527120057 L 77.92388641527636,15.228011435613016 L 76.80051223202194,12.446279880556437 A 68.19187213377482 68.19187213377482 0 0 1 66.4714430320588,15.690677274308534"/><text text-anchor="middle" pointer-events="none" font-size="8px" fill="#000000" x="49.48812938553201" y="19.884319384840005" font-family="sans-serif">ROUTE</text></g><g class="relationship" transform="translate(47.04590440011047 231.44262428180525) rotate(257.84555941418074)"><path class="outline" fill="#A5ABB6" stroke="none" d="M 20.902088942449435,-13.724164012497559 L 21.43412101896477,-12.877439813269275 A 56.07067000074224 56.07067000074224 0 0 1 32.9008034347617,-18.378941729282865 L 32.573275467358044,-19.323783213643296 A 57.07067000074224 57.07067000074224 0 0 0 20.902088942449435,-13.724164012497559 Z M 66.34126237633613,-20.444513533917842 L 66.07710310914908,-19.48003446127852 A 56.07067000074224 56.07067000074224 0 0 1 77.8833301723009,-14.750940310180535 L 76.45917307764431,-12.110528113242466 L 84.28165148093248,-11.867975788804854 L 79.78220629850968,-18.271489906097962 L 78.35804920385308,-15.631077709159893 A 57.07067000074224 57.07067000074224 0 0 0 66.34126237633613,-20.444513533917842"/><text text-anchor="middle" pointer-events="none" font-size="8px" fill="#000000" x="49.38901754822438" y="-18.94058554632609" transform="rotate(180 49.38901754822438 -21.94058554632609)" font-family="sans-serif">ROUTE</text></g><g class="relationship" transform="translate(47.04590440011047 231.44262428180525) rotate(257.84555941418074)"><path class="outline" fill="#A5ABB6" stroke="none" d="M 19.03335875203862,-16.21669678498661 L 19.666546661272758,-15.442698676720381 A 49.90456843690057 49.90456843690057 0 0 1 32.897271220554615,-23.21788052535058 L 32.52920381979678,-24.147679637255607 A 50.90456843690057 50.90456843690057 0 0 0 19.03335875203862,-16.21669678498661 Z M 66.19268954581615,-25.48342789125264 L 65.89945115890686,-24.52738853618255 A 49.90456843690057 49.90456843690057 0 0 1 79.70463853157074,-17.82497652642856 L 77.99502816454812,-15.359772195552758 L 85.74171703145137,-14.246753058521765 L 81.98411902093422,-21.111915634262964 L 80.2745086539116,-18.64671130338716 A 50.90456843690057 50.90456843690057 0 0 0 66.19268954581615,-25.48342789125264"/><text text-anchor="middle" pointer-events="none" font-size="8px" fill="#000000" x="49.26706359498931" y="-24.181592407531546" transform="rotate(180 49.26706359498931 -27.181592407531546)" font-family="sans-serif">ROUTE</text></g><g class="relationship" transform="translate(47.04590440011047 231.44262428180525) rotate(257.84555941418074)"><path class="outline" fill="#A5ABB6" stroke="none" d="M 16.86920063166904,-18.45752069072379 L 17.593716292528317,-17.768262352239844 A 46.47490942929089 46.47490942929089 0 0 1 32.84643011886956,-28.404171463554775 L 32.45010689590084,-29.322282515081596 A 47.47490942929089 47.47490942929089 0 0 0 16.86920063166904,-18.45752069072379 Z M 66.0318808284461,-30.855122125842634 L 65.72084569441655,-29.904723711808174 A 46.47490942929089 46.47490942929089 0 0 1 81.87906779340159,-20.702566340175927 L 79.90293364973557,-18.44537918660682 L 87.47519350900717,-16.467784530550087 L 84.5139133182896,-23.7121492116014 L 82.53777917462358,-21.454962058032294 A 47.47490942929089 47.47490942929089 0 0 0 66.0318808284461,-30.855122125842634"/><text text-anchor="middle" pointer-events="none" font-size="8px" fill="#000000" x="49.12357708031014" y="-29.661093976275076" transform="rotate(180 49.12357708031014 -32.661093976275076)" font-family="sans-serif">ROUTE</text></g><g class="relationship" transform="translate(47.04590440011047 231.44262428180525) rotate(257.84555941418074)"><path class="outline" fill="#A5ABB6" stroke="none" d="M 14.443205749454206,-20.411854586953456 L 15.247803529220873,-19.818034401379958 A 44.76486685346069 44.76486685346069 0 0 1 32.746066375885306,-33.9901794853346 L 32.332361367093384,-34.900590472581825 A 45.76486685346069 45.76486685346069 0 0 0 14.443205749454206,-20.411854586953456 Z M 65.86192077536653,-36.61049212157535 L 65.54297732009464,-35.6627183762441 A 44.76486685346069 44.76486685346069 0 0 1 84.39218140436105,-23.344179326450462 L 82.17213691042322,-21.326407673131804 L 89.47032267776089,-18.500370782815295 L 87.3522407296115,-26.034541530875337 L 85.13219623567366,-24.01676987755668 A 45.76486685346069 45.76486685346069 0 0 0 65.86192077536653,-36.61049212157535"/><text text-anchor="middle" pointer-events="none" font-size="8px" fill="#000000" x="48.960146555723114" y="-35.44187460110092" transform="rotate(180 48.960146555723114 -38.44187460110092)" font-family="sans-serif">ROUTE</text></g><g class="relationship" transform="translate(47.04590440011047 231.44262428180525) rotate(257.84555941418074)"><path class="outline" fill="#A5ABB6" stroke="none" d="M 11.793029395533932,-22.049364110469778 L 12.665220659930537,-21.560199109360486 A 44.25668649391895 44.25668649391895 0 0 1 32.59825833675294,-40.03852231663424 L 32.1764631425538,-40.94521345155866 A 45.25668649391895 45.25668649391895 0 0 0 11.793029395533932,-22.049364110469778 Z M 65.68371821233097,-42.80989817120495 L 65.36513098648088,-41.86200462257982 A 44.25668649391895 44.25668649391895 0 0 1 87.22538122321966,-25.709485340274174 L 84.78779259689345,-23.960725297042075 L 91.71208609514892,-20.313238552718374 L 90.4754993916546,-28.04116539791697 L 88.03791076532839,-26.29240535468487 A 45.25668649391895 45.25668649391895 0 0 0 65.68371821233097,-42.80989817120495"/><text text-anchor="middle" pointer-events="none" font-size="8px" fill="#000000" x="48.77864629587965" y="-41.5989196261021" transform="rotate(180 48.77864629587965 -44.5989196261021)" font-family="sans-serif">ROUTE</text></g><g class="relationship" transform="translate(47.04590440011047 231.44262428180525) rotate(257.84555941418074)"><path class="outline" fill="#A5ABB6" stroke="none" d="M 8.959806512219979,-23.34463251506822 L 9.886053468830289,-22.967715315447215 A 44.67433036829376 44.67433036829376 0 0 1 32.40788471576632,-46.62839595577266 L 31.985771364769498,-47.53493901537338 A 45.67433036829376 45.67433036829376 0 0 0 8.959806512219979,-23.34463251506822 Z M 65.49712279033882,-49.529719730453834 L 65.18553405626179,-48.579502670621565 A 44.67433036829376 44.67433036829376 0 0 1 90.35520933886585,-27.757683892061312 L 87.73023255652491,-26.30527317460878 L 94.18166380997859,-21.874806519507867 L 93.8551783819871,-29.69423151533136 L 91.23020159964616,-28.241820797878827 A 45.67433036829376 45.67433036829376 0 0 0 65.49712279033882,-49.529719730453834"/><text text-anchor="middle" pointer-events="none" font-size="8px" fill="#000000" x="48.58124174947673" y="-48.22370141639901" transform="rotate(180 48.58124174947673 -51.22370141639901)" font-family="sans-serif">ROUTE</text></g><g class="relationship" transform="translate(47.04590440011047 231.44262428180525) rotate(257.84555941418074)"><path class="outline" fill="#A5ABB6" stroke="none" d="M 5.987513214418485,-24.277555179777966 L 6.953439040707552,-24.018736134675446 A 45.87523779191036 45.87523779191036 0 0 1 32.18135088124552,-53.86263848426719 L 31.765349438018433,-54.77200243738661 A 46.87523779191036 46.87523779191036 0 0 0 5.987513214418485,-24.277555179777966 Z M 65.30185636403176,-56.86971861093928 L 65.0024159555313,-55.91560360646808 A 45.87523779191036 45.87523779191036 0 0 1 93.75262255586834,-29.448044902956244 L 90.97418857340983,-28.31653944334953 L 96.85587429202708,-23.15361652048753 L 97.45720119914634,-30.956718849098532 L 94.67876721668783,-29.825213389491818 A 46.87523779191036 46.87523779191036 0 0 0 65.30185636403176,-56.86971861093928"/><text text-anchor="middle" pointer-events="none" font-size="8px" fill="#000000" x="48.3703923889685" y="-55.43013175779914" transform="rotate(180 48.3703923889685 -58.43013175779914)" font-family="sans-serif">ROUTE</text></g><g class="relationship" transform="translate(135.57280110178763 128.04284002737595) rotate(308.50082675810813)"><path class="outline" fill="#A5ABB6" stroke="none" d="M 24.018736134675446,6.953439040707552 L 24.277555179777966,5.987513214418485 A 102.43453842993101 102.43453842993101 0 0 0 32.318756487769484,7.798812952084887 L 32.13843832167949,8.782421288252252 A 103.43453842993101 103.43453842993101 0 0 1 24.018736134675446,6.953439040707552 Z M 66.1440518194328,9.331877495218833 L 65.99560539669265,8.342957043627479 A 102.43453842993101 102.43453842993101 0 0 0 74.09112708341752,6.7923913935885105 L 73.40869429740091,3.8710414500573314 L 81.0213490826597,5.686939883471648 L 75.00103746477298,10.687524651630083 L 74.31860467875637,7.766174708098904 A 103.43453842993101 103.43453842993101 0 0 1 66.1440518194328,9.331877495218833"/><text text-anchor="middle" pointer-events="none" font-size="8px" fill="#000000" x="49.12658505972449" y="12.96445129476868" font-family="sans-serif">ROUTE</text></g><g class="relationship" transform="translate(201.16582580640736 45.58354870841099) rotate(223.33010384360387)"><path class="outline" fill="#A5ABB6" stroke="none" d="M 24.018736134675446,-6.953439040707552 L 24.277555179777966,-5.987513214418485 A 109.81352714892152 109.81352714892152 0 0 1 34.148178335667566,-8.151013751186142 L 33.979244602622316,-9.136641162452378 A 110.81352714892152 110.81352714892152 0 0 0 24.018736134675446,-6.953439040707552 Z M 67.99416373936747,-9.6687302528929 L 67.85614109252029,-8.67830117973456 A 109.81352714892152 109.81352714892152 0 0 1 77.78960471233601,-6.824592310473973 L 77.1041640945556,-3.903946635371154 L 84.71868472387267,-5.712005148170135 L 78.70352553604324,-10.718786543944397 L 78.01808491826283,-7.798140868841578 A 110.81352714892152 110.81352714892152 0 0 0 67.99416373936747,-9.6687302528929"/><text text-anchor="middle" pointer-events="none" font-size="8px" fill="#000000" x="50.973984396547486" y="-7.215824159558551" transform="rotate(180 50.973984396547486 -10.21582415955855)" font-family="sans-serif">ROUTE</text></g><g class="relationship" transform="translate(121.83613035344003 -29.251707867991307) rotate(403.33010384360387)"><path class="outline" fill="#A5ABB6" stroke="none" d="M 24.018736134675446,-6.953439040707552 L 24.277555179777966,-5.987513214418485 A 109.81352714892152 109.81352714892152 0 0 1 34.148178335667566,-8.151013751186142 L 33.979244602622316,-9.136641162452378 A 110.81352714892152 110.81352714892152 0 0 0 24.018736134675446,-6.953439040707552 Z M 67.99416373936747,-9.6687302528929 L 67.85614109252029,-8.67830117973456 A 109.81352714892152 109.81352714892152 0 0 1 77.78960471233601,-6.824592310473973 L 77.1041640945556,-3.903946635371154 L 84.71868472387267,-5.712005148170135 L 78.70352553604324,-10.718786543944397 L 78.01808491826283,-7.798140868841578 A 110.81352714892152 110.81352714892152 0 0 0 67.99416373936747,-9.6687302528929"/><text text-anchor="middle" pointer-events="none" font-size="8px" fill="#000000" x="50.973984396547486" y="-7.215824159558551" font-family="sans-serif">ROUTE</text></g><g class="relationship" transform="translate(121.83613035344003 -29.251707867991307) rotate(403.33010384360387)"><path class="outline" fill="#A5ABB6" stroke="none" d="M 17.324116139070416,-18.03122292025696 L 18.031222920256962,-17.324116139070412 A 49.0281884121806 49.0281884121806 0 0 1 34.21246402893232,-28.06516791806974 L 33.83539679504945,-28.991353807150283 A 50.0281884121806 50.0281884121806 0 0 0 17.324116139070416,-18.03122292025696 Z M 67.47655944104166,-30.45192242288232 L 67.1811825246622,-29.496541620652046 A 49.0281884121806 49.0281884121806 0 0 1 84.2324512083826,-20.19831633773886 L 82.30296544842659,-17.9011257269869 L 89.91414359346317,-16.079047999633474 L 86.80509888832395,-23.261237152074802 L 84.87561312836795,-20.964046541322844 A 50.0281884121806 50.0281884121806 0 0 0 67.47655944104166,-30.45192242288232"/><text text-anchor="middle" pointer-events="none" font-size="8px" fill="#000000" x="50.5510896219608" y="-29.13752663848164" font-family="sans-serif">ROUTE</text></g></g><g class="layer nodes"><g class="node" transform="translate(24.667842400067435,127.54006442903952)"><circle class="outline" cx="0" cy="0" r="25" fill="#ECB5C9" stroke="#da7298" stroke-width="2px"/><text text-anchor="middle" pointer-events="none" font-family="sans-serif" dy="1.5625" font-size="25" fill="#2A2C34"/><text text-anchor="middle" pointer-events="none" x="0" y="5" font-size="10px" fill="#2A2C34" font-family="sans-serif"> LAX</text></g><g class="node" transform="translate(47.04590440011047,231.44262428180525)"><circle class="outline" cx="0" cy="0" r="25" fill="#ECB5C9" stroke="#da7298" stroke-width="2px"/><text text-anchor="middle" pointer-events="none" font-family="sans-serif" dy="1.5625" font-size="25" fill="#2A2C34"/><text text-anchor="middle" pointer-events="none" x="0" y="5" font-size="10px" fill="#2A2C34" font-family="sans-serif"> ABQ</text></g><g class="node" transform="translate(135.57280110178763,128.04284002737595)"><circle class="outline" cx="0" cy="0" r="25" fill="#ECB5C9" stroke="#da7298" stroke-width="2px"/><text text-anchor="middle" pointer-events="none" font-family="sans-serif" dy="1.5625" font-size="25" fill="#2A2C34"/><text text-anchor="middle" pointer-events="none" x="0" y="5" font-size="10px" fill="#2A2C34" font-family="sans-serif"> SMF</text></g><g class="node" transform="translate(201.16582580640736,45.58354870841099)"><circle class="outline" cx="0" cy="0" r="25" fill="#ECB5C9" stroke="#da7298" stroke-width="2px"/><text text-anchor="middle" pointer-events="none" font-family="sans-serif" dy="1.5625" font-size="25" fill="#2A2C34"/><text text-anchor="middle" pointer-events="none" x="0" y="5" font-size="10px" fill="#2A2C34" font-family="sans-serif"> DEN</text></g><g class="node" transform="translate(121.83613035344003,-29.251707867991307)"><circle class="outline" cx="0" cy="0" r="25" fill="#ECB5C9" stroke="#da7298" stroke-width="2px"/><text text-anchor="middle" pointer-events="none" font-family="sans-serif" dy="1.5625" font-size="25" fill="#2A2C34"/><text text-anchor="middle" pointer-events="none" x="0" y="5" font-size="10px" fill="#2A2C34" font-family="sans-serif"> PHX</text></g></g></svg>