<svg xmlns="http://www.w3.org/2000/svg" width="160.0205078125" height="242.65940856933594" viewBox="0.9230575561523438 -20.968677520751953 160.0205078125 242.65940856933594"><title>Neo4j Graph Visualization</title><desc>Created using Neo4j (http://www.neo4j.com/)</desc><g class="layer relationships"><g class="relationship" transform="translate(131.94355446813788 8.031323201365028) rotate(519.5318078659135)"><path class="outline" fill="#A5ABB6" stroke="none" d="M 21.40063509461097,12.933012701892217 L 21.90063509461097,12.06698729810778 A 59.924028412839455 59.924028412839455 0 0 0 40.496686574048596,19.00750434274991 L 40.30701369944347,19.989351683551433 A 60.924028412839455 60.924028412839455 0 0 1 21.40063509461097,12.933012701892217 Z M 59.710651583679834,20.58769536883399 L 59.58183537623096,19.596026883553506 A 59.924028412839455 59.924028412839455 0 0 0 78.57019276439398,13.814488059654057 L 77.23312260218636,11.128926036290219 L 85.05934917927755,11.142251351730229 L 80.35295298067082,17.39523742413917 L 79.0158828184632,14.709675400775335 A 60.924028412839455 60.924028412839455 0 0 1 59.710651583679834,20.58769536883399"/><text text-anchor="middle" pointer-events="none" font-size="8px" fill="#000000" x="50.000258407312884" y="23.566576659517267" transform="rotate(180 50.000258407312884 20.566576659517267)" font-family="sans-serif">trek</text></g><g class="relationship" transform="translate(31.287527883415578 45.601391889856906) rotate(450.73265890968344)"><path class="outline" fill="#A5ABB6" stroke="none" d="M 25 0.5 L 40.18600222134622 0.5 L 40.18600222134622 -0.5 L 25 -0.5 Z M 59.52193972134622 0.5 L 74.70794194269244 0.5 L 74.70794194269244 3.5 L 81.70794194269244 0 L 74.70794194269244 -3.5 L 74.70794194269244 -0.5 L 59.52193972134622 -0.5 Z"/><text text-anchor="middle" pointer-events="none" font-size="8px" fill="#000000" x="49.85397097134622" y="3" transform="rotate(180 49.85397097134622 0)" font-family="sans-serif">trek</text></g><g class="relationship" transform="translate(29.923057507736896 152.30060976064973) rotate(382.0856501980903)"><path class="outline" fill="#A5ABB6" stroke="none" d="M 25 0.5 L 40.54342408714372 0.5 L 40.54342408714372 -0.5 L 25 -0.5 Z M 59.87936158714372 0.5 L 75.42278567428744 0.5 L 75.42278567428744 3.5 L 82.42278567428744 0 L 75.42278567428744 -3.5 L 75.42278567428744 -0.5 L 59.87936158714372 -0.5 Z"/><text text-anchor="middle" pointer-events="none" font-size="8px" fill="#000000" x="50.21139283714372" y="3" font-family="sans-serif">trek</text></g><g class="relationship" transform="translate(131.94355446813788 8.031323201365028) rotate(519.5318078659135)"><path class="outline" fill="#A5ABB6" stroke="none" d="M 25 0.5 L 39.21365697865475 0.5 L 39.21365697865475 -0.5 L 25 -0.5 Z M 61.22537572865475 0.5 L 75.4390327073095 0.5 L 75.4390327073095 3.5 L 82.4390327073095 0 L 75.4390327073095 -3.5 L 75.4390327073095 -0.5 L 61.22537572865475 -0.5 Z"/><text text-anchor="middle" pointer-events="none" font-size="8px" fill="#000000" x="50.21951635365475" y="3" transform="rotate(180 50.21951635365475 0)" font-family="sans-serif">road</text></g><g class="relationship" transform="translate(131.94355446813788 8.031323201365028) rotate(519.5318078659135)"><path class="outline" fill="#A5ABB6" stroke="none" d="M 21.40063509461097,-12.933012701892217 L 21.90063509461097,-12.06698729810778 A 59.924028412839455 59.924028412839455 0 0 1 23.46192127930987,-12.937607691167571 L 22.98797570565689,-13.818161831021982 A 60.924028412839455 60.924028412839455 0 0 0 21.40063509461097,-12.933012701892217 Z M 77.37701989319872,-15.495339138304573 L 76.95822994682034,-14.587256002896595 A 59.924028412839455 59.924028412839455 0 0 1 78.57019276439398,-13.814488059654057 L 77.23312260218636,-11.128926036290219 L 85.05934917927755,-11.142251351730229 L 80.35295298067082,-17.39523742413917 L 79.0158828184632,-14.709675400775335 A 60.924028412839455 60.924028412839455 0 0 0 77.37701989319872,-15.495339138304573"/><text text-anchor="middle" pointer-events="none" font-size="8px" fill="#000000" x="50.00025840731288" y="-17.566576659517267" transform="rotate(180 50.00025840731288 -20.566576659517267)" font-family="sans-serif">PublicTrans…</text></g></g><g class="layer nodes"><g class="node" transform="translate(131.94355446813788,8.031323201365028)"><circle class="outline" cx="0" cy="0" r="25" fill="#F16667" stroke="#eb2728" stroke-width="2px"/><text text-anchor="middle" pointer-events="none" font-family="sans-serif" dy="1.5625" font-size="25" fill="#FFFFFF"/><text text-anchor="middle" pointer-events="none" x="0" y="5" font-size="10px" fill="#FFFFFF" font-family="sans-serif"> Darjeeling</text></g><g class="node" transform="translate(129.46346292482792,192.6907393893728)"><circle class="outline" cx="0" cy="0" r="25" fill="#D9C8AE" stroke="#c0a378" stroke-width="2px"/><text text-anchor="middle" pointer-events="none" font-family="sans-serif" dy="1.5625" font-size="25" fill="#2A2C34"/><text text-anchor="middle" pointer-events="none" x="0" y="5" font-size="10px" fill="#2A2C34" font-family="sans-serif"> Sandak…</text></g><g class="node" transform="translate(31.287527883415578,45.601391889856906)"><circle class="outline" cx="0" cy="0" r="25" fill="#F16667" stroke="#eb2728" stroke-width="2px"/><text text-anchor="middle" pointer-events="none" font-family="sans-serif" dy="1.5625" font-size="25" fill="#FFFFFF"/><text text-anchor="middle" pointer-events="none" x="0" y="5" font-size="10px" fill="#FFFFFF" font-family="sans-serif"> Rimbik</text></g><g class="node" transform="translate(29.923057507736896,152.30060976064973)"><circle class="outline" cx="0" cy="0" r="25" fill="#8DCC93" stroke="#5db665" stroke-width="2px"/><text text-anchor="middle" pointer-events="none" font-family="sans-serif" dy="1.5625" font-size="25" fill="#2A2C34"/><text text-anchor="middle" pointer-events="none" x="0" y="5" font-size="10px" fill="#2A2C34" font-family="sans-serif"> BhikeBh…</text></g></g></svg>