<svg xmlns="http://www.w3.org/2000/svg" width="394.612060546875" height="411.24658203125" viewBox="-96.1493148803711 -116.04463958740234 394.612060546875 411.24658203125"><title>Neo4j Graph Visualization</title><desc>Created using Neo4j (http://www.neo4j.com/)</desc><g class="layer relationships"><g class="relationship" transform="translate(100.57953238222714 -87.04464324581973) rotate(385.80672764893313)"><path class="outline" fill="#A5ABB6" stroke="none" d="M 24.018736134675446,-6.953439040707552 L 24.277555179777966,-5.987513214418485 A 107.79924105723387 107.79924105723387 0 0 1 39.55110368082901,-8.91860710866618 L 39.43396975661655,-9.911723236718984 A 108.79924105723387 108.79924105723387 0 0 0 24.018736134675446,-6.953439040707552 Z M 61.506521895101685,-10.260033083445137 L 61.420781682288926,-9.263715555793013 A 107.79924105723387 107.79924105723387 0 0 1 76.7792089905285,-6.816001142636239 L 76.09457085385148,-3.89516725112385 L 83.70859442683692,-5.705317805641903 L 77.69205983943121,-10.710446331319424 L 77.00742170275419,-7.789612439807035 A 108.79924105723387 108.79924105723387 0 0 0 61.506521895101685,-10.260033083445137"/><text text-anchor="middle" pointer-events="none" font-size="8px" fill="#000000" x="50.46927812654199" y="-7.147201702418073" font-family="sans-serif">road</text></g><g class="relationship" transform="translate(197.8524419716562 -40.006989713007336) rotate(410.9588767883197)"><path class="outline" fill="#A5ABB6" stroke="none" d="M 21.40063509461097,-12.933012701892217 L 21.90063509461097,-12.06698729810778 A 66.378311202127 66.378311202127 0 0 1 42.30706732155742,-19.717558300109715 L 42.114493525348706,-20.698840794101017 A 67.378311202127 67.378311202127 0 0 0 21.40063509461097,-12.933012701892217 Z M 64.18139450240265,-21.343795251951462 L 64.04646081759338,-20.352940620482343 A 66.378311202127 66.378311202127 0 0 1 84.86488752926667,-13.90725817869857 L 83.51918757271348,-11.226010031485647 L 91.34541653218903,-11.21416630460994 L 86.65915413800427,-17.4822557083158 L 85.31345418145108,-14.801007561102878 A 67.378311202127 67.378311202127 0 0 0 64.18139450240265,-21.343795251951462"/><text text-anchor="middle" pointer-events="none" font-size="8px" fill="#000000" x="53.13595704190804" y="-18.431448258122344" font-family="sans-serif">road</text></g><g class="relationship" transform="translate(269.46273868722477 48.29470042028118) rotate(499.5409012794297)"><path class="outline" fill="#A5ABB6" stroke="none" d="M 21.40063509461097,12.933012701892217 L 21.90063509461097,12.06698729810778 A 66.72371639898279 66.72371639898279 0 0 0 42.4739577341453,19.769252421949787 L 42.282293716459506,20.7507130193884 A 67.72371639898279 67.72371639898279 0 0 1 21.40063509461097,12.933012701892217 Z M 64.34942851665106,21.393874599325287 L 64.21525195774791,20.40291715773614 A 66.72371639898279 66.72371639898279 0 0 0 85.2022457959862,13.91195558782399 L 83.85610888465821,11.23092678977643 L 91.68233580998518,11.217807594399936 L 86.9970950110902,17.4866606518874 L 85.6509580997622,14.805631853839841 A 67.72371639898279 67.72371639898279 0 0 1 64.34942851665106,21.393874599325287"/><text text-anchor="middle" pointer-events="none" font-size="8px" fill="#000000" x="53.30404422490159" y="24.477736157245346" transform="rotate(180 53.30404422490159 21.477736157245346)" font-family="sans-serif">road</text></g><g class="relationship" transform="translate(182.7051830991263 122.2856080849522) rotate(474.73059601276964)"><path class="outline" fill="#A5ABB6" stroke="none" d="M 25 0.5 L 47.59208663980212 0.5 L 47.59208663980212 -0.5 L 25 -0.5 Z M 66.92802413980212 0.5 L 89.52011077960424 0.5 L 89.52011077960424 3.5 L 96.52011077960424 0 L 89.52011077960424 -3.5 L 89.52011077960424 -0.5 L 66.92802413980212 -0.5 Z"/><text text-anchor="middle" pointer-events="none" font-size="8px" fill="#000000" x="57.26005538980212" y="3" transform="rotate(180 57.26005538980212 0)" font-family="sans-serif">trek</text></g><g class="relationship" transform="translate(100.57953238222714 -87.04464324581973) rotate(385.80672764893313)"><path class="outline" fill="#A5ABB6" stroke="none" d="M 24.018736134675446,6.953439040707552 L 24.277555179777966,5.987513214418485 A 107.79924105723387 107.79924105723387 0 0 0 40.87457999906917,9.066422972221034 L 40.7697233071012,10.060910314598772 A 108.79924105723387 108.79924105723387 0 0 1 24.018736134675446,6.953439040707552 Z M 60.16672618647014,10.36699939108938 L 60.09330035834989,9.369698710369235 A 107.79924105723387 107.79924105723387 0 0 0 76.7792089905285,6.816001142636239 L 76.09457085385148,3.89516725112385 L 83.70859442683692,5.705317805641903 L 77.69205983943121,10.710446331319424 L 77.00742170275419,7.789612439807035 A 108.79924105723387 108.79924105723387 0 0 1 60.16672618647014,10.36699939108938"/><text text-anchor="middle" pointer-events="none" font-size="8px" fill="#000000" x="50.469278126542015" y="13.147201702418073" font-family="sans-serif">trek</text></g><g class="relationship" transform="translate(197.8524419716562 -40.006989713007336) rotate(410.9588767883197)"><path class="outline" fill="#A5ABB6" stroke="none" d="M 25 0.5 L 30.112153671148363 0.5 L 30.112153671148363 -0.5 L 25 -0.5 Z M 76.57699742114836 0.5 L 81.68915109229673 0.5 L 81.68915109229673 3.5 L 88.68915109229673 0 L 81.68915109229673 -3.5 L 81.68915109229673 -0.5 L 76.57699742114836 -0.5 Z"/><text text-anchor="middle" pointer-events="none" font-size="8px" fill="#000000" x="53.34457554614836" y="3" font-family="sans-serif">twowheeler</text></g><g class="relationship" transform="translate(197.8524419716562 -40.006989713007336) rotate(410.9588767883197)"><path class="outline" fill="#A5ABB6" stroke="none" d="M 21.40063509461097,12.933012701892217 L 21.90063509461097,12.06698729810778 A 66.378311202127 66.378311202127 0 0 0 43.61257155620098,19.960224655925998 L 43.439665392551774,20.945162957837397 A 67.378311202127 67.378311202127 0 0 1 21.40063509461097,12.933012701892217 Z M 62.84409836773292,21.51230084287242 L 62.72901225866146,20.518945323685656 A 66.378311202127 66.378311202127 0 0 0 84.86488752926667,13.90725817869857 L 83.51918757271348,11.226010031485647 L 91.34541653218903,11.21416630460994 L 86.65915413800427,17.4822557083158 L 85.31345418145108,14.801007561102878 A 67.378311202127 67.378311202127 0 0 1 62.84409836773292,21.51230084287242"/><text text-anchor="middle" pointer-events="none" font-size="8px" fill="#000000" x="53.13595704190805" y="24.431448258122344" font-family="sans-serif">trek</text></g><g class="relationship" transform="translate(269.46273868722477 48.29470042028118) rotate(499.5409012794297)"><path class="outline" fill="#A5ABB6" stroke="none" d="M 25 0.5 L 43.84415248019076 0.5 L 43.84415248019076 -0.5 L 25 -0.5 Z M 63.18008998019076 0.5 L 82.02424246038152 0.5 L 82.02424246038152 3.5 L 89.02424246038152 0 L 82.02424246038152 -3.5 L 82.02424246038152 -0.5 L 63.18008998019076 -0.5 Z"/><text text-anchor="middle" pointer-events="none" font-size="8px" fill="#000000" x="53.51212123019076" y="3" transform="rotate(180 53.51212123019076 0)" font-family="sans-serif">trek</text></g><g class="relationship" transform="translate(269.46273868722477 48.29470042028118) rotate(499.5409012794297)"><path class="outline" fill="#A5ABB6" stroke="none" d="M 21.40063509461097,-12.933012701892217 L 21.90063509461097,-12.06698729810778 A 66.72371639898279 66.72371639898279 0 0 1 30.839819352881364,-16.375929737474763 L 30.473792469798553,-17.306534014738027 A 67.72371639898279 67.72371639898279 0 0 0 21.40063509461097,-12.933012701892217 Z M 76.338480301116,-18.6432913851895 L 76.02727488995917,-17.692948714324565 A 66.72371639898279 66.72371639898279 0 0 1 85.2022457959862,-13.91195558782399 L 83.85610888465821,-11.23092678977643 L 91.68233580998518,-11.217807594399936 L 86.9970950110902,-17.4866606518874 L 85.6509580997622,-14.805631853839841 A 67.72371639898279 67.72371639898279 0 0 0 76.338480301116,-18.6432913851895"/><text text-anchor="middle" pointer-events="none" font-size="8px" fill="#000000" x="53.30404422490159" y="-18.477736157245346" transform="rotate(180 53.30404422490159 -21.477736157245346)" font-family="sans-serif">twowheeler</text></g><g class="relationship" transform="translate(100.57953238222714 -87.04464324581973) rotate(448.7519706956449)"><path class="outline" fill="#A5ABB6" stroke="none" d="M 21.40063509461097,12.933012701892217 L 21.90063509461097,12.06698729810778 A 64.34054539488017 64.34054539488017 0 0 0 22.901585175498752,12.633020681468693 L 22.417142241027875,13.507843545391012 A 65.34054539488017 65.34054539488017 0 0 1 21.40063509461097,12.933012701892217 Z M 82.27442092567068,15.2866535855742 L 81.84278214819838,14.384607042549831 A 64.34054539488017 64.34054539488017 0 0 0 82.87557838422515,13.879011561599636 L 81.53250596781696,11.196446281073648 L 89.35874277485382,11.192270136734868 L 84.66634160610273,17.45576526896762 L 83.32326918969454,14.773199988441633 A 65.34054539488017 65.34054539488017 0 0 1 82.27442092567068,15.2866535855742"/><text text-anchor="middle" pointer-events="none" font-size="8px" fill="#000000" x="52.14485769984616" y="24.15837348470569" font-family="sans-serif">PublicTransport</text></g><g class="relationship" transform="translate(103.01270704042813 24.642309178770955) rotate(518.3893515659682)"><path class="outline" fill="#A5ABB6" stroke="none" d="M 24.018736134675446,-6.953439040707552 L 24.277555179777966,-5.987513214418485 A 138.69110358585527 138.69110358585527 0 0 1 48.625866779096754,-10.231728929569044 L 48.542605581396074,-11.228256687816383 A 139.69110358585527 139.69110358585527 0 0 0 24.018736134675446,-6.953439040707552 Z M 67.93052872329552,-11.49775573995285 L 67.87499852595232,-10.499298731773223 A 138.69110358585527 138.69110358585527 0 0 1 92.33187221791718,-6.933492513043736 L 91.63625979839541,-4.015252741913358 L 99.25703375380836,-5.796770162681353 L 93.2593554439462,-10.824478874550906 L 92.56374302442444,-7.9062391034205275 A 139.69110358585527 139.69110358585527 0 0 0 67.93052872329552,-11.49775573995285"/><text text-anchor="middle" pointer-events="none" font-size="8px" fill="#000000" x="58.2388350448238" y="-8.199852671380512" transform="rotate(180 58.2388350448238 -11.199852671380512)" font-family="sans-serif">trek</text></g><g class="relationship" transform="translate(-11.876615120908944 70.15491090994831) rotate(423.95265446182333)"><path class="outline" fill="#A5ABB6" stroke="none" d="M 24.018736134675446,-6.953439040707552 L 24.277555179777966,-5.987513214418485 A 113.15359365700586 113.15359365700586 0 0 1 28.8888264024352,-7.119958391471897 L 28.67075967525406,-8.095892253214856 A 114.15359365700586 114.15359365700586 0 0 0 24.018736134675446,-6.953439040707552 Z M 75.01017308211831,-8.810445437340135 L 74.82230065379552,-7.828251998817905 A 113.15359365700586 113.15359365700586 0 0 1 79.46629577742581,-6.838522914857897 L 78.77955394183006,-3.9181829258767227 L 86.39487939098119,-5.7228486299646555 L 80.38195155822017,-10.732309566832797 L 79.69520972262441,-7.811969577851622 A 114.15359365700586 114.15359365700586 0 0 0 75.01017308211831,-8.810445437340135"/><text text-anchor="middle" pointer-events="none" font-size="8px" fill="#000000" x="51.8115315437947" y="-7.329618780263914" font-family="sans-serif">twowheeler</text></g><g class="relationship" transform="translate(36.74690445375464 169.63917039283234) rotate(393.5262600762797)"><path class="outline" fill="#A5ABB6" stroke="none" d="M 24.018736134675446,6.953439040707552 L 24.277555179777966,5.987513214418485 A 119.8736085711891 119.8736085711891 0 0 0 30.549840750344583,7.48855293623005 L 30.34334586270531,8.467000615658463 A 120.8736085711891 120.8736085711891 0 0 1 24.018736134675446,6.953439040707552 Z M 76.70685521203974,9.161979394731262 L 76.52977993992798,8.17778208320955 A 119.8736085711891 119.8736085711891 0 0 0 82.84423785991483,6.865414870151749 L 82.15498415082024,3.9456667090085062 L 89.7718591874315,5.74378090912158 L 83.76324280537429,10.75841241834274 L 83.0739890962797,7.838664257199497 A 120.8736085711891 120.8736085711891 0 0 1 76.70685521203974,9.161979394731262"/><text text-anchor="middle" pointer-events="none" font-size="8px" fill="#000000" x="53.498956922016575" y="13.55858607183788" font-family="sans-serif">twowheeler</text></g><g class="relationship" transform="translate(100.57953238222714 -87.04464324581973) rotate(448.7519706956449)"><path class="outline" fill="#A5ABB6" stroke="none" d="M 25 0.5 L 42.68875797295185 0.5 L 42.68875797295185 -0.5 L 25 -0.5 Z M 62.02469547295185 0.5 L 79.7134534459037 0.5 L 79.7134534459037 3.5 L 86.7134534459037 0 L 79.7134534459037 -3.5 L 79.7134534459037 -0.5 L 62.02469547295185 -0.5 Z"/><text text-anchor="middle" pointer-events="none" font-size="8px" fill="#000000" x="52.35672672295185" y="3" font-family="sans-serif">trek</text></g><g class="relationship" transform="translate(100.57953238222714 -87.04464324581973) rotate(448.7519706956449)"><path class="outline" fill="#A5ABB6" stroke="none" d="M 21.40063509461097,-12.933012701892217 L 21.90063509461097,-12.06698729810778 A 64.34054539488017 64.34054539488017 0 0 1 41.323345540070804,-19.41152939578958 L 41.12521911491006,-20.3917058695192 A 65.34054539488017 65.34054539488017 0 0 0 21.40063509461097,-12.933012701892217 Z M 63.19057660465066,-21.04743363238275 L 63.0510052442115,-20.057221617031914 A 64.34054539488017 64.34054539488017 0 0 1 82.87557838422515,-13.879011561599636 L 81.53250596781696,-11.196446281073648 L 89.35874277485382,-11.192270136734868 L 84.66634160610273,-17.45576526896762 L 83.32326918969454,-14.773199988441633 A 65.34054539488017 65.34054539488017 0 0 0 63.19057660465066,-21.04743363238275"/><text text-anchor="middle" pointer-events="none" font-size="8px" fill="#000000" x="52.14485769984618" y="-18.15837348470569" font-family="sans-serif">road</text></g><g class="relationship" transform="translate(103.01270704042813 24.642309178770955) rotate(518.3893515659682)"><path class="outline" fill="#A5ABB6" stroke="none" d="M 24.018736134675446,6.953439040707552 L 24.277555179777966,5.987513214418485 A 138.69110358585527 138.69110358585527 0 0 0 35.23316776533429,8.452412179751377 L 35.053341621018475,9.43611058771009 A 139.69110358585527 139.69110358585527 0 0 1 24.018736134675446,6.953439040707552 Z M 81.46439421765953,10.081240785096753 L 81.31197978684011,9.092924114551323 A 138.69110358585527 138.69110358585527 0 0 0 92.33187221791718,6.933492513043736 L 91.63625979839541,4.015252741913358 L 99.25703375380836,5.796770162681353 L 93.2593554439462,10.824478874550906 L 92.56374302442444,7.9062391034205275 A 139.69110358585527 139.69110358585527 0 0 1 81.46439421765953,10.081240785096753"/><text text-anchor="middle" pointer-events="none" font-size="8px" fill="#000000" x="58.238835044823794" y="14.199852671380512" transform="rotate(180 58.238835044823794 11.199852671380512)" font-family="sans-serif">twowheeler</text></g><g class="relationship" transform="translate(-11.876615120908944 70.15491090994831) rotate(423.95265446182333)"><path class="outline" fill="#A5ABB6" stroke="none" d="M 24.018736134675446,6.953439040707552 L 24.277555179777966,5.987513214418485 A 113.15359365700586 113.15359365700586 0 0 0 42.212859785384715,9.272351153118507 L 42.112544805649954,10.267306883209457 A 114.15359365700586 114.15359365700586 0 0 1 24.018736134675446,6.953439040707552 Z M 61.50782824600212,10.566381915032423 L 61.4382380758506,9.568806249622384 A 113.15359365700586 113.15359365700586 0 0 0 79.46629577742581,6.838522914857897 L 78.77955394183006,3.9181829258767227 L 86.39487939098119,5.7228486299646555 L 80.38195155822017,10.732309566832797 L 79.69520972262441,7.811969577851622 A 114.15359365700586 114.15359365700586 0 0 1 61.50782824600212,10.566381915032423"/><text text-anchor="middle" pointer-events="none" font-size="8px" fill="#000000" x="51.81153154379474" y="13.329618780263928" font-family="sans-serif">trek</text></g><g class="relationship" transform="translate(103.01270704042813 24.642309178770955) rotate(410.78007996863204)"><path class="outline" fill="#A5ABB6" stroke="none" d="M 25 0.5 L 49.850093267266196 0.5 L 49.850093267266196 -0.5 L 25 -0.5 Z M 69.1860307672662 0.5 L 94.03612403453239 0.5 L 94.03612403453239 3.5 L 101.03612403453239 0 L 94.03612403453239 -3.5 L 94.03612403453239 -0.5 L 69.1860307672662 -0.5 Z"/><text text-anchor="middle" pointer-events="none" font-size="8px" fill="#000000" x="59.518062017266196" y="3" font-family="sans-serif">trek</text></g><g class="relationship" transform="translate(36.74690445375464 169.63917039283234) rotate(393.5262600762797)"><path class="outline" fill="#A5ABB6" stroke="none" d="M 24.018736134675446,-6.953439040707552 L 24.277555179777966,-5.987513214418485 A 119.8736085711891 119.8736085711891 0 0 1 43.89586022234975,-9.528110686711315 L 43.80069942760282,-10.523572601172702 A 120.8736085711891 120.8736085711891 0 0 0 24.018736134675446,-6.953439040707552 Z M 63.193906577485784,-10.814272498925916 L 63.12862534208962,-9.81640559382025 A 119.8736085711891 119.8736085711891 0 0 1 82.84423785991483,-6.865414870151749 L 82.15498415082024,-3.9456667090085062 L 89.7718591874315,-5.74378090912158 L 83.76324280537429,-10.75841241834274 L 83.0739890962797,-7.838664257199497 A 120.8736085711891 120.8736085711891 0 0 0 63.193906577485784,-10.814272498925916"/><text text-anchor="middle" pointer-events="none" font-size="8px" fill="#000000" x="53.498956922016546" y="-7.55858607183788" font-family="sans-serif">trek</text></g><g class="relationship" transform="translate(103.01270704042813 24.642309178770955) rotate(325.71896184098966)"><path class="outline" fill="#A5ABB6" stroke="none" d="M 25 0.5 L 44.22128801688993 0.5 L 44.22128801688993 -0.5 L 25 -0.5 Z M 63.55722551688993 0.5 L 82.77851353377986 0.5 L 82.77851353377986 3.5 L 89.77851353377986 0 L 82.77851353377986 -3.5 L 82.77851353377986 -0.5 L 63.55722551688993 -0.5 Z"/><text text-anchor="middle" pointer-events="none" font-size="8px" fill="#000000" x="53.88925676688993" y="3" font-family="sans-serif">trek</text></g><g class="relationship" transform="translate(-11.876615120908944 70.15491090994831) rotate(477.8123613551779)"><path class="outline" fill="#A5ABB6" stroke="none" d="M 24.018736134675446,-6.953439040707552 L 24.277555179777966,-5.987513214418485 A 128.54718776427717 128.54718776427717 0 0 1 32.70328632630341,-7.9438919447169525 L 32.510013103657755,-8.925036919431776 A 129.54718776427717 129.54718776427717 0 0 0 24.018736134675446,-6.953439040707552 Z M 78.89847311932422,-9.59617369328582 L 78.73366477481095,-8.609848082962941 A 128.54718776427717 128.54718776427717 0 0 1 87.21246634216865,-6.8980399537423 L 86.52016529792435,-3.9790128445605024 L 94.13891310430023,-5.76917536870255 L 88.13553440116105,-10.79007609931803 L 87.44323335691675,-7.871048990136233 A 129.54718776427717 129.54718776427717 0 0 0 78.89847311932422,-9.59617369328582"/><text text-anchor="middle" pointer-events="none" font-size="8px" fill="#000000" x="55.681188119138056" y="-7.854148727893971" transform="rotate(180 55.681188119138056 -10.854148727893971)" font-family="sans-serif">twowheeler</text></g><g class="relationship" transform="translate(-67.14931393266019 174.93411208283823) rotate(357.0825158989328)"><path class="outline" fill="#A5ABB6" stroke="none" d="M 21.40063509461097,12.933012701892217 L 21.90063509461097,12.06698729810778 A 56.39439260692173 56.39439260692173 0 0 0 37.503559581998616,18.19811013210527 L 37.280234686847116,19.17285419656813 A 57.39439260692173 57.39439260692173 0 0 1 21.40063509461097,12.933012701892217 Z M 59.336025232943776,19.87403504358204 L 59.17506536534587,18.887074091455332 A 56.39439260692173 56.39439260692173 0 0 0 75.13592083487188,13.759402841698016 L 73.80397514243471,11.071295575907072 L 81.63016207045695,11.099547436976433 L 76.91184842478812,17.343545862752606 L 75.57990273235094,14.655438596961663 A 57.39439260692173 57.39439260692173 0 0 1 59.336025232943776,19.87403504358204"/><text text-anchor="middle" pointer-events="none" font-size="8px" fill="#000000" x="48.29000166417376" y="23.093673962616386" font-family="sans-serif">road</text></g><g class="relationship" transform="translate(-11.876615120908944 70.15491090994831) rotate(477.8123613551779)"><path class="outline" fill="#A5ABB6" stroke="none" d="M 24.018736134675446,6.953439040707552 L 24.277555179777966,5.987513214418485 A 128.54718776427717 128.54718776427717 0 0 0 46.07314095742397,9.854470821569493 L 45.983875102529026,10.850478656453276 A 129.54718776427717 129.54718776427717 0 0 1 24.018736134675446,6.953439040707552 Z M 65.37454855539639,11.131018127253128 L 65.31413402133413,10.132844753497835 A 128.54718776427717 128.54718776427717 0 0 0 87.21246634216865,6.8980399537423 L 86.52016529792435,3.9790128445605024 L 94.13891310430023,5.76917536870255 L 88.13553440116105,10.79007609931803 L 87.44323335691675,7.871048990136233 A 129.54718776427717 129.54718776427717 0 0 1 65.37454855539639,11.131018127253128"/><text text-anchor="middle" pointer-events="none" font-size="8px" fill="#000000" x="55.68118811913807" y="13.854148727893971" transform="rotate(180 55.68118811913807 10.854148727893971)" font-family="sans-serif">trek</text></g><g class="relationship" transform="translate(-67.14931393266019 174.93411208283823) rotate(357.0825158989328)"><path class="outline" fill="#A5ABB6" stroke="none" d="M 25 0.5 L 38.84755922602405 0.5 L 38.84755922602405 -0.5 L 25 -0.5 Z M 58.18349672602405 0.5 L 72.0310559520481 0.5 L 72.0310559520481 3.5 L 79.0310559520481 0 L 72.0310559520481 -3.5 L 72.0310559520481 -0.5 L 58.18349672602405 -0.5 Z"/><text text-anchor="middle" pointer-events="none" font-size="8px" fill="#000000" x="48.51552797602405" y="3" font-family="sans-serif">trek</text></g><g class="relationship" transform="translate(-67.14931393266019 174.93411208283823) rotate(357.0825158989328)"><path class="outline" fill="#A5ABB6" stroke="none" d="M 21.40063509461097,-12.933012701892217 L 21.90063509461097,-12.06698729810778 A 56.39439260692173 56.39439260692173 0 0 1 26.07093573731847,-14.247965612766706 L 25.644884590208427,-15.152664689833884 A 57.39439260692173 57.39439260692173 0 0 0 21.40063509461097,-12.933012701892217 Z M 71.20323528706263,-16.601020978102625 L 70.83550940078075,-15.671086747870078 A 56.39439260692173 56.39439260692173 0 0 1 75.13592083487188,-13.759402841698016 L 73.80397514243471,-11.071295575907072 L 81.63016207045695,-11.099547436976433 L 76.91184842478812,-17.343545862752606 L 75.57990273235094,-14.655438596961663 A 57.39439260692173 57.39439260692173 0 0 0 71.20323528706263,-16.601020978102625"/><text text-anchor="middle" pointer-events="none" font-size="8px" fill="#000000" x="48.290001664173744" y="-17.093673962616386" font-family="sans-serif">twowheeler</text></g><g class="relationship" transform="translate(-67.14931393266019 174.93411208283823) rotate(407.80400377445443)"><path class="outline" fill="#A5ABB6" stroke="none" d="M 25 0.5 L 48.4286051156824 0.5 L 48.4286051156824 -0.5 L 25 -0.5 Z M 67.7645426156824 0.5 L 91.1931477313648 0.5 L 91.1931477313648 3.5 L 98.1931477313648 0 L 91.1931477313648 -3.5 L 91.1931477313648 -0.5 L 67.7645426156824 -0.5 Z"/><text text-anchor="middle" pointer-events="none" font-size="8px" fill="#000000" x="58.0965738656824" y="3" font-family="sans-serif">trek</text></g><g class="relationship" transform="translate(15.59568235490851 266.20194451755816) rotate(343.90843035962735)"><path class="outline" fill="#A5ABB6" stroke="none" d="M 25 0.5 L 47.33832091879594 0.5 L 47.33832091879594 -0.5 L 25 -0.5 Z M 66.67425841879594 0.5 L 89.01257933759187 0.5 L 89.01257933759187 3.5 L 96.01257933759187 0 L 89.01257933759187 -3.5 L 89.01257933759187 -0.5 L 66.67425841879594 -0.5 Z"/><text text-anchor="middle" pointer-events="none" font-size="8px" fill="#000000" x="57.00628966879594" y="3" font-family="sans-serif">trek</text></g></g><g class="layer nodes"><g class="node" transform="translate(100.57953238222714,-87.04464324581973)"><circle class="outline" cx="0" cy="0" r="25" fill="#F16667" stroke="#eb2728" stroke-width="2px"/><text text-anchor="middle" pointer-events="none" font-family="sans-serif" dy="1.5625" font-size="25" fill="#FFFFFF"/><text text-anchor="middle" pointer-events="none" x="0" y="5" font-size="10px" fill="#FFFFFF" font-family="sans-serif"> Darjeeling</text></g><g class="node" transform="translate(131.8669824386745,232.66049054239778)"><circle class="outline" cx="0" cy="0" r="25" fill="#D9C8AE" stroke="#c0a378" stroke-width="2px"/><text text-anchor="middle" pointer-events="none" font-family="sans-serif" dy="1.5625" font-size="25" fill="#2A2C34"/><text text-anchor="middle" pointer-events="none" x="0" y="5" font-size="10px" fill="#2A2C34" font-family="sans-serif"> Sandak…</text></g><g class="node" transform="translate(197.8524419716562,-40.006989713007336)"><circle class="outline" cx="0" cy="0" r="25" fill="#8DCC93" stroke="#5db665" stroke-width="2px"/><text text-anchor="middle" pointer-events="none" font-family="sans-serif" dy="1.5625" font-size="25" fill="#2A2C34"/><text text-anchor="middle" pointer-events="none" x="0" y="5" font-size="10px" fill="#2A2C34" font-family="sans-serif"> Tumbling</text></g><g class="node" transform="translate(269.46273868722477,48.29470042028118)"><circle class="outline" cx="0" cy="0" r="25" fill="#8DCC93" stroke="#5db665" stroke-width="2px"/><text text-anchor="middle" pointer-events="none" font-family="sans-serif" dy="1.5625" font-size="25" fill="#2A2C34"/><text text-anchor="middle" pointer-events="none" x="0" y="5" font-size="10px" fill="#2A2C34" font-family="sans-serif"> Gairibus</text></g><g class="node" transform="translate(182.7051830991263,122.2856080849522)"><circle class="outline" cx="0" cy="0" r="25" fill="#8DCC93" stroke="#5db665" stroke-width="2px"/><text text-anchor="middle" pointer-events="none" font-family="sans-serif" dy="1.5625" font-size="25" fill="#2A2C34"/><text text-anchor="middle" pointer-events="none" x="0" y="5" font-size="10px" fill="#2A2C34" font-family="sans-serif"> BhikeBh…</text></g><g class="node" transform="translate(103.01270704042813,24.642309178770955)"><circle class="outline" cx="0" cy="0" r="25" fill="#F16667" stroke="#eb2728" stroke-width="2px"/><text text-anchor="middle" pointer-events="none" font-family="sans-serif" dy="1.5625" font-size="25" fill="#FFFFFF"/><text text-anchor="middle" pointer-events="none" x="0" y="5" font-size="10px" fill="#FFFFFF" font-family="sans-serif"> Rimbik</text></g><g class="node" transform="translate(-11.876615120908944,70.15491090994831)"><circle class="outline" cx="0" cy="0" r="25" fill="#8DCC93" stroke="#5db665" stroke-width="2px"/><text text-anchor="middle" pointer-events="none" font-family="sans-serif" dy="1.5625" font-size="25" fill="#2A2C34"/><text text-anchor="middle" pointer-events="none" x="0" y="5" font-size="10px" fill="#2A2C34" font-family="sans-serif"> Sirikhola</text></g><g class="node" transform="translate(36.74690445375464,169.63917039283234)"><circle class="outline" cx="0" cy="0" r="25" fill="#8DCC93" stroke="#5db665" stroke-width="2px"/><text text-anchor="middle" pointer-events="none" font-family="sans-serif" dy="1.5625" font-size="25" fill="#2A2C34"/><text text-anchor="middle" pointer-events="none" x="0" y="5" font-size="10px" fill="#2A2C34" font-family="sans-serif"> Gurdum</text></g><g class="node" transform="translate(-67.14931393266019,174.93411208283823)"><circle class="outline" cx="0" cy="0" r="25" fill="#8DCC93" stroke="#5db665" stroke-width="2px"/><text text-anchor="middle" pointer-events="none" font-family="sans-serif" dy="1.5625" font-size="25" fill="#2A2C34"/><text text-anchor="middle" pointer-events="none" x="0" y="5" font-size="10px" fill="#2A2C34" font-family="sans-serif"> Rammam</text></g><g class="node" transform="translate(15.59568235490851,266.20194451755816)"><circle class="outline" cx="0" cy="0" r="25" fill="#D9C8AE" stroke="#c0a378" stroke-width="2px"/><text text-anchor="middle" pointer-events="none" font-family="sans-serif" dy="1.5625" font-size="25" fill="#2A2C34"/><text text-anchor="middle" pointer-events="none" x="0" y="5" font-size="10px" fill="#2A2C34" font-family="sans-serif"> Sabargr…</text></g></g></svg>